<svg xmlns="http://www.w3.org/2000/svg" xmlns:xlink="http://www.w3.org/1999/xlink" width="1280" zoomAndPan="magnify" viewBox="0 0 960 540.000001" height="720" preserveAspectRatio="xMidYMid meet" version="1.0"><defs><clipPath id="02f1fc4e4f"><path d="M 475.246094 96 L 797 96 L 797 377.285156 L 475.246094 377.285156 Z M 475.246094 96 " clip-rule="nonzero"/></clipPath><clipPath id="29e588da81"><path d="M 684.949219 96.085938 L 586.90625 96.085938 C 525.234375 96.085938 475.246094 144.921875 475.246094 205.160156 C 475.246094 248.769531 501.453125 286.386719 539.316406 303.839844 L 539.316406 377.285156 L 615.152344 314.230469 L 684.949219 314.230469 C 746.625 314.230469 796.617188 265.398438 796.617188 205.15625 C 796.621094 144.921875 746.625 96.085938 684.949219 96.085938 Z M 684.949219 96.085938 " clip-rule="nonzero"/></clipPath><clipPath id="137d8a95a2"><path d="M 242 311 L 365 311 L 365 529 L 242 529 Z M 242 311 " clip-rule="nonzero"/></clipPath><clipPath id="0e33de86e6"><path d="M 361.289062 310.679688 L 365.8125 527.195312 L 246.097656 529.695312 L 241.574219 313.179688 Z M 361.289062 310.679688 " clip-rule="nonzero"/></clipPath><clipPath id="ed0591eefb"><path d="M 364.890625 483.132812 C 365.398438 507.417969 339.007812 527.660156 305.953125 528.351562 C 272.894531 529.042969 245.683594 509.917969 245.175781 485.632812 L 242.492188 357.144531 C 241.984375 332.863281 268.375 312.621094 301.433594 311.929688 C 334.488281 311.238281 361.699219 330.363281 362.207031 354.644531 Z M 364.890625 483.132812 " clip-rule="nonzero"/></clipPath><clipPath id="6ec5315f8d"><path d="M 477 311 L 600 311 L 600 529 L 477 529 Z M 477 311 " clip-rule="nonzero"/></clipPath><clipPath id="80009c6b17"><path d="M 596.378906 310.679688 L 600.898438 527.195312 L 481.183594 529.695312 L 476.664062 313.179688 Z M 596.378906 310.679688 " clip-rule="nonzero"/></clipPath><clipPath id="a116517df6"><path d="M 599.980469 483.132812 C 600.484375 507.417969 574.097656 527.660156 541.039062 528.351562 C 507.980469 529.042969 480.769531 509.917969 480.261719 485.632812 L 477.582031 357.144531 C 477.074219 332.863281 503.460938 312.621094 536.519531 311.929688 C 569.578125 311.238281 596.789062 330.363281 597.296875 354.644531 Z M 599.980469 483.132812 " clip-rule="nonzero"/></clipPath><clipPath id="4b9af56d8d"><path d="M 587 16 L 630 16 L 630 63 L 587 63 Z M 587 16 " clip-rule="nonzero"/></clipPath><clipPath id="b1dbd92db8"><path d="M 619.351562 12.539062 L 632.148438 55.808594 L 596.984375 66.207031 L 584.1875 22.9375 Z M 619.351562 12.539062 " clip-rule="nonzero"/></clipPath><clipPath id="6fb18b9e28"><path d="M 628.925781 44.921875 C 630.691406 50.882812 624.246094 58.042969 614.535156 60.914062 C 604.828125 63.785156 595.527344 61.277344 593.761719 55.316406 L 587.378906 33.730469 C 585.617188 27.769531 592.0625 20.609375 601.769531 17.738281 C 611.480469 14.867188 620.78125 17.371094 622.542969 23.332031 Z M 628.925781 44.921875 " clip-rule="nonzero"/></clipPath><clipPath id="0caf02e80e"><path d="M 479 49 L 577 49 L 577 188 L 479 188 Z M 479 49 " clip-rule="nonzero"/></clipPath><clipPath id="ef9bcbc557"><path d="M 462.113281 175.320312 L 541.53125 39.933594 L 584.511719 65.144531 L 505.09375 200.53125 Z M 462.113281 175.320312 " clip-rule="nonzero"/></clipPath><clipPath id="33a8bd8d58"><path d="M 462.113281 175.320312 L 541.53125 39.933594 L 584.511719 65.144531 L 505.09375 200.53125 Z M 462.113281 175.320312 " clip-rule="nonzero"/></clipPath><clipPath id="318dc58a07"><path d="M 538.8125 35.222656 L 716 35.222656 L 716 171.183594 L 538.8125 171.183594 Z M 538.8125 35.222656 " clip-rule="nonzero"/></clipPath><clipPath id="599663456c"><path d="M 627.25 35.222656 C 578.40625 35.222656 538.8125 65.660156 538.8125 103.203125 C 538.8125 140.75 578.40625 171.183594 627.25 171.183594 C 676.089844 171.183594 715.683594 140.75 715.683594 103.203125 C 715.683594 65.660156 676.089844 35.222656 627.25 35.222656 Z M 627.25 35.222656 " clip-rule="nonzero"/></clipPath><clipPath id="61f38a996f"><path d="M 152.207031 219.097656 L 659.539062 219.097656 L 659.539062 472.765625 L 152.207031 472.765625 Z M 152.207031 219.097656 " clip-rule="nonzero"/></clipPath><clipPath id="417ee0d5cf"><path d="M 532.707031 219.097656 C 602.753906 219.097656 659.539062 275.882812 659.539062 345.933594 C 659.539062 415.980469 602.753906 472.765625 532.707031 472.765625 L 279.039062 472.765625 C 208.992188 472.765625 152.207031 415.980469 152.207031 345.933594 C 152.207031 275.882812 208.992188 219.097656 279.039062 219.097656 Z M 532.707031 219.097656 " clip-rule="nonzero"/></clipPath><clipPath id="f135d865de"><path d="M 428 176 L 496 176 L 496 241 L 428 241 Z M 428 176 " clip-rule="nonzero"/></clipPath><clipPath id="27479c016f"><path d="M 503.050781 190.574219 L 441.191406 248.445312 L 422.46875 228.429688 L 484.332031 170.5625 Z M 503.050781 190.574219 " clip-rule="nonzero"/></clipPath><clipPath id="e449a051bf"><path d="M 503.050781 190.574219 L 441.191406 248.445312 L 422.46875 228.429688 L 484.332031 170.5625 Z M 503.050781 190.574219 " clip-rule="nonzero"/></clipPath><clipPath id="527a5bb569"><path d="M 440 185 L 508 185 L 508 250 L 440 250 Z M 440 185 " clip-rule="nonzero"/></clipPath><clipPath id="5c90d74099"><path d="M 515.453125 199.660156 L 453.59375 257.527344 L 434.871094 237.511719 L 496.730469 179.644531 Z M 515.453125 199.660156 " clip-rule="nonzero"/></clipPath><clipPath id="c5a8197e1f"><path d="M 515.453125 199.660156 L 453.59375 257.527344 L 434.871094 237.511719 L 496.730469 179.644531 Z M 515.453125 199.660156 " clip-rule="nonzero"/></clipPath><clipPath id="15e3dceb0c"><path d="M 417 187 L 494 187 L 494 238 L 417 238 Z M 417 187 " clip-rule="nonzero"/></clipPath><clipPath id="aabaa51e53"><path d="M 498.417969 207.902344 L 422.816406 246.113281 L 410.457031 221.652344 L 486.054688 183.441406 Z M 498.417969 207.902344 " clip-rule="nonzero"/></clipPath><clipPath id="23100f5754"><path d="M 498.417969 207.902344 L 422.816406 246.113281 L 410.457031 221.652344 L 486.054688 183.441406 Z M 498.417969 207.902344 " clip-rule="nonzero"/></clipPath><clipPath id="d8a70b3f66"><path d="M 728 119 L 807 119 L 807 236 L 728 236 Z M 728 119 " clip-rule="nonzero"/></clipPath><clipPath id="a45c9dbd85"><path d="M 805.355469 119.144531 L 807.78125 235.21875 L 730.195312 236.839844 L 727.769531 120.765625 Z M 805.355469 119.144531 " clip-rule="nonzero"/></clipPath><clipPath id="61b4319a94"><path d="M 806.859375 191.097656 C 807.363281 215.378906 790.40625 235.425781 768.984375 235.875 C 747.558594 236.320312 729.777344 217 729.273438 192.714844 L 728.6875 164.730469 C 728.179688 140.449219 745.136719 120.402344 766.5625 119.953125 C 787.988281 119.507812 805.765625 138.828125 806.273438 163.109375 Z M 806.859375 191.097656 " clip-rule="nonzero"/></clipPath><clipPath id="216a5b9a89"><path d="M 596 57 L 625 57 L 625 107 L 596 107 Z M 596 57 " clip-rule="nonzero"/></clipPath><clipPath id="bd152ead98"><path d="M 618.90625 55.863281 L 625.851562 104.710938 L 601.429688 108.183594 L 594.480469 59.335938 Z M 618.90625 55.863281 " clip-rule="nonzero"/></clipPath><clipPath id="e02fc280a9"><path d="M 624.117188 92.496094 C 625.074219 99.242188 620.382812 105.488281 613.640625 106.445312 C 606.894531 107.40625 600.652344 102.714844 599.691406 95.972656 L 596.21875 71.546875 C 595.257812 64.800781 599.949219 58.558594 606.691406 57.597656 C 613.4375 56.640625 619.683594 61.328125 620.640625 68.074219 Z M 624.117188 92.496094 " clip-rule="nonzero"/></clipPath><clipPath id="3fb5d9695c"><path d="M 637 55 L 666 55 L 666 105 L 637 105 Z M 637 55 " clip-rule="nonzero"/></clipPath><clipPath id="cd8079fe73"><path d="M 660.335938 53.558594 L 667.28125 102.40625 L 642.859375 105.878906 L 635.910156 57.03125 Z M 660.335938 53.558594 " clip-rule="nonzero"/></clipPath><clipPath id="6b49136e36"><path d="M 665.546875 90.195312 C 666.503906 96.9375 661.816406 103.183594 655.070312 104.144531 C 648.328125 105.101562 642.082031 100.414062 641.121094 93.667969 L 637.648438 69.246094 C 636.6875 62.5 641.378906 56.253906 648.121094 55.296875 C 654.867188 54.335938 661.113281 59.027344 662.070312 65.769531 Z M 665.546875 90.195312 " clip-rule="nonzero"/></clipPath><clipPath id="b04fa5556b"><path d="M 605.675781 63.398438 L 614.46875 63.398438 L 614.46875 72.191406 L 605.675781 72.191406 Z M 605.675781 63.398438 " clip-rule="nonzero"/></clipPath><clipPath id="67dad2b9b2"><path d="M 610.074219 63.398438 C 607.644531 63.398438 605.675781 65.367188 605.675781 67.792969 C 605.675781 70.222656 607.644531 72.191406 610.074219 72.191406 C 612.5 72.191406 614.46875 70.222656 614.46875 67.792969 C 614.46875 65.367188 612.5 63.398438 610.074219 63.398438 Z M 610.074219 63.398438 " clip-rule="nonzero"/></clipPath><clipPath id="997ac1038b"><path d="M 647.222656 60.945312 L 656.015625 60.945312 L 656.015625 69.738281 L 647.222656 69.738281 Z M 647.222656 60.945312 " clip-rule="nonzero"/></clipPath><clipPath id="8e0d3441a5"><path d="M 651.617188 60.945312 C 649.191406 60.945312 647.222656 62.914062 647.222656 65.339844 C 647.222656 67.769531 649.191406 69.738281 651.617188 69.738281 C 654.046875 69.738281 656.015625 67.769531 656.015625 65.339844 C 656.015625 62.914062 654.046875 60.945312 651.617188 60.945312 Z M 651.617188 60.945312 " clip-rule="nonzero"/></clipPath><clipPath id="8cd87e9e99"><path d="M 541 28 L 587 28 L 587 79 L 541 79 Z M 541 28 " clip-rule="nonzero"/></clipPath><clipPath id="7e46ad5566"><path d="M 578.015625 25.101562 L 588.816406 73.355469 L 549.601562 82.136719 L 538.796875 33.882812 Z M 578.015625 25.101562 " clip-rule="nonzero"/></clipPath><clipPath id="0480af3abd"><path d="M 586.097656 61.210938 C 587.585938 67.859375 580.015625 75.214844 569.1875 77.640625 C 558.355469 80.0625 548.371094 76.640625 546.882812 69.992188 L 541.492188 45.917969 C 540.003906 39.269531 547.578125 31.917969 558.40625 29.492188 C 569.234375 27.066406 579.222656 30.492188 580.710938 37.136719 Z M 586.097656 61.210938 " clip-rule="nonzero"/></clipPath><clipPath id="6c12dbda06"><path d="M 556 40 L 572 40 L 572 67 L 556 67 Z M 556 40 " clip-rule="nonzero"/></clipPath><clipPath id="ecef9359ac"><path d="M 567.820312 39.320312 L 573.507812 64.722656 L 559.757812 67.800781 L 554.070312 42.398438 Z M 567.820312 39.320312 " clip-rule="nonzero"/></clipPath><clipPath id="63401d2ba6"><path d="M 570.808594 52.667969 C 572.296875 59.316406 570.425781 65.394531 566.628906 66.246094 C 562.832031 67.09375 558.546875 62.394531 557.058594 55.746094 L 556.765625 54.4375 C 555.277344 47.789062 557.148438 41.710938 560.945312 40.859375 C 564.742188 40.011719 569.027344 44.710938 570.515625 51.359375 Z M 570.808594 52.667969 " clip-rule="nonzero"/></clipPath><clipPath id="5f10880a4f"><path d="M 554.09375 147.441406 L 610.1875 147.441406 L 610.1875 203.535156 L 554.09375 203.535156 Z M 554.09375 147.441406 " clip-rule="nonzero"/></clipPath><clipPath id="5b5dbec38a"><path d="M 582.140625 147.441406 C 566.648438 147.441406 554.09375 160 554.09375 175.488281 C 554.09375 190.980469 566.648438 203.535156 582.140625 203.535156 C 597.628906 203.535156 610.1875 190.980469 610.1875 175.488281 C 610.1875 160 597.628906 147.441406 582.140625 147.441406 Z M 582.140625 147.441406 " clip-rule="nonzero"/></clipPath><clipPath id="f913939a14"><path d="M 193 321 L 316 321 L 316 538 L 193 538 Z M 193 321 " clip-rule="nonzero"/></clipPath><clipPath id="314ab0e733"><path d="M 312.03125 320.074219 L 316.550781 536.589844 L 196.835938 539.089844 L 192.316406 322.574219 Z M 312.03125 320.074219 " clip-rule="nonzero"/></clipPath><clipPath id="8f3fa46f64"><path d="M 315.632812 492.53125 C 316.136719 516.8125 289.75 537.058594 256.691406 537.746094 C 223.632812 538.4375 196.421875 519.3125 195.917969 495.03125 L 193.234375 366.542969 C 192.726562 342.261719 219.113281 322.015625 252.171875 321.324219 C 285.230469 320.636719 312.441406 339.761719 312.949219 364.042969 Z M 315.632812 492.53125 " clip-rule="nonzero"/></clipPath><clipPath id="0f4a8eb68e"><path d="M 493 382 L 527 382 L 527 477 L 493 477 Z M 493 382 " clip-rule="nonzero"/></clipPath><clipPath id="0ad751ea02"><path d="M 523.589844 477.65625 L 466.734375 437.238281 L 507.152344 380.382812 L 564.007812 420.800781 Z M 523.589844 477.65625 " clip-rule="nonzero"/></clipPath><clipPath id="8f7736ab46"><path d="M 523.589844 477.65625 L 466.734375 437.238281 L 507.152344 380.382812 L 564.007812 420.800781 Z M 523.589844 477.65625 " clip-rule="nonzero"/></clipPath><clipPath id="03c5475238"><path d="M 522 321 L 646 321 L 646 538 L 522 538 Z M 522 321 " clip-rule="nonzero"/></clipPath><clipPath id="c3eb47ab85"><path d="M 641.78125 320.074219 L 646.300781 536.589844 L 526.585938 539.089844 L 522.066406 322.574219 Z M 641.78125 320.074219 " clip-rule="nonzero"/></clipPath><clipPath id="1e56983d34"><path d="M 645.382812 492.53125 C 645.886719 516.8125 619.5 537.058594 586.441406 537.746094 C 553.382812 538.4375 526.171875 519.3125 525.667969 495.03125 L 522.984375 366.542969 C 522.476562 342.261719 548.863281 322.015625 581.921875 321.324219 C 614.980469 320.636719 642.191406 339.761719 642.699219 364.042969 Z M 645.382812 492.53125 " clip-rule="nonzero"/></clipPath><clipPath id="05e3f392a4"><path d="M 291 339 L 343 339 L 343 479 L 291 479 Z M 291 339 " clip-rule="nonzero"/></clipPath><clipPath id="cf51b19934"><path d="M 295.488281 337.652344 L 379.582031 395.640625 L 321.59375 479.734375 L 237.5 421.742188 Z M 295.488281 337.652344 " clip-rule="nonzero"/></clipPath><clipPath id="d3d4f6fddc"><path d="M 295.488281 337.652344 L 379.582031 395.640625 L 321.59375 479.734375 L 237.5 421.742188 Z M 295.488281 337.652344 " clip-rule="nonzero"/></clipPath><clipPath id="8ac5171e3e"><path d="M 702 251 L 757 251 L 757 285 L 702 285 Z M 702 251 " clip-rule="nonzero"/></clipPath><clipPath id="9ef4daf6b3"><path d="M 753.671875 287.015625 L 699.214844 280.816406 L 702.59375 251.113281 L 757.054688 257.308594 Z M 753.671875 287.015625 " clip-rule="nonzero"/></clipPath><clipPath id="bf0542e8a2"><path d="M 753.671875 287.015625 L 699.214844 280.816406 L 702.59375 251.113281 L 757.054688 257.308594 Z M 753.671875 287.015625 " clip-rule="nonzero"/></clipPath><clipPath id="cb2fa23c37"><path d="M 753.671875 287.015625 L 699.214844 280.816406 L 702.59375 251.113281 L 757.054688 257.308594 Z M 753.671875 287.015625 " clip-rule="nonzero"/></clipPath><clipPath id="28914866e4"><path d="M 721 260 L 748 260 L 748 277 L 721 277 Z M 721 260 " clip-rule="nonzero"/></clipPath><clipPath id="d441b018a8"><path d="M 746.589844 277.515625 L 719.339844 274.59375 L 720.933594 259.730469 L 748.183594 262.652344 Z M 746.589844 277.515625 " clip-rule="nonzero"/></clipPath><clipPath id="827c0de999"><path d="M 746.589844 277.515625 L 719.339844 274.59375 L 720.933594 259.730469 L 748.183594 262.652344 Z M 746.589844 277.515625 " clip-rule="nonzero"/></clipPath></defs><g clip-path="url(#02f1fc4e4f)"><g clip-path="url(#29e588da81)"><path fill="#ffffff" d="M 475.246094 96.085938 L 797.085938 96.085938 L 797.085938 377.285156 L 475.246094 377.285156 Z M 475.246094 96.085938 " fill-opacity="1" fill-rule="nonzero"/></g></g><g clip-path="url(#137d8a95a2)"><g clip-path="url(#0e33de86e6)"><g clip-path="url(#ed0591eefb)"><path fill="#d9d9d9" d="M 361.289062 310.679688 L 365.8125 527.195312 L 246.097656 529.695312 L 241.574219 313.179688 Z M 361.289062 310.679688 " fill-opacity="1" fill-rule="nonzero"/></g></g></g><g clip-path="url(#6ec5315f8d)"><g clip-path="url(#80009c6b17)"><g clip-path="url(#a116517df6)"><path fill="#d9d9d9" d="M 596.378906 310.679688 L 600.898438 527.195312 L 481.183594 529.695312 L 476.664062 313.179688 Z M 596.378906 310.679688 " fill-opacity="1" fill-rule="nonzero"/></g></g></g><g clip-path="url(#4b9af56d8d)"><g clip-path="url(#b1dbd92db8)"><g clip-path="url(#6fb18b9e28)"><path fill="#d9d9d9" d="M 619.351562 12.539062 L 632.105469 55.671875 L 596.941406 66.070312 L 584.1875 22.9375 Z M 619.351562 12.539062 " fill-opacity="1" fill-rule="nonzero"/></g></g></g><g clip-path="url(#0caf02e80e)"><g clip-path="url(#ef9bcbc557)"><g clip-path="url(#33a8bd8d58)"><path fill="#ffffff" d="M 510.652344 187.699219 C 510.867188 187.710938 511.074219 187.679688 511.273438 187.605469 C 511.472656 187.527344 511.648438 187.414062 511.796875 187.261719 C 511.945312 187.109375 512.058594 186.933594 512.132812 186.730469 C 512.203125 186.53125 512.230469 186.324219 512.214844 186.113281 C 510.878906 169.46875 517.105469 146.425781 530.316406 123.910156 C 543.523438 101.394531 560.597656 84.710938 575.773438 77.757812 C 575.96875 77.667969 576.136719 77.542969 576.277344 77.378906 C 576.414062 77.21875 576.515625 77.035156 576.574219 76.832031 C 576.632812 76.625 576.648438 76.417969 576.617188 76.207031 C 576.585938 75.996094 576.511719 75.800781 576.398438 75.621094 L 560.132812 50.402344 C 560.035156 50.246094 559.910156 50.117188 559.761719 50.007812 C 559.613281 49.898438 559.453125 49.820312 559.273438 49.773438 C 559.097656 49.726562 558.917969 49.714844 558.734375 49.734375 C 558.550781 49.753906 558.378906 49.804688 558.214844 49.890625 C 554.800781 51.671875 551.496094 53.648438 548.308594 55.8125 C 531.171875 67.40625 514.75 85.703125 502.0625 107.335938 C 489.371094 128.96875 481.414062 152.230469 479.660156 172.84375 C 479.324219 176.683594 479.210938 180.53125 479.324219 184.382812 C 479.328125 184.566406 479.367188 184.742188 479.441406 184.914062 C 479.511719 185.082031 479.609375 185.230469 479.738281 185.363281 C 479.867188 185.496094 480.015625 185.601562 480.179688 185.675781 C 480.347656 185.753906 480.523438 185.796875 480.707031 185.808594 Z M 510.652344 187.699219 " fill-opacity="1" fill-rule="nonzero"/></g></g></g><g clip-path="url(#318dc58a07)"><g clip-path="url(#599663456c)"><path fill="#ffffff" d="M 538.8125 35.222656 L 715.667969 35.222656 L 715.667969 171.183594 L 538.8125 171.183594 Z M 538.8125 35.222656 " fill-opacity="1" fill-rule="nonzero"/></g></g><g clip-path="url(#61f38a996f)"><g clip-path="url(#417ee0d5cf)"><path fill="#ffffff" d="M 152.207031 219.097656 L 659.539062 219.097656 L 659.539062 472.765625 L 152.207031 472.765625 Z M 152.207031 219.097656 " fill-opacity="1" fill-rule="nonzero"/></g></g><g clip-path="url(#f135d865de)"><g clip-path="url(#27479c016f)"><g clip-path="url(#e449a051bf)"><path fill="#ffffff" d="M 479.777344 176.6875 C 479.667969 176.644531 479.554688 176.628906 479.441406 176.640625 C 479.324219 176.648438 479.214844 176.679688 479.117188 176.738281 C 479.015625 176.792969 478.929688 176.867188 478.859375 176.960938 C 478.792969 177.050781 478.746094 177.15625 478.722656 177.269531 C 476.855469 186.105469 470.082031 197.101562 459.769531 206.746094 C 449.457031 216.394531 438.035156 222.421875 429.09375 223.695312 C 428.976562 223.710938 428.871094 223.75 428.773438 223.8125 C 428.679688 223.875 428.597656 223.953125 428.535156 224.050781 C 428.472656 224.148438 428.433594 224.253906 428.417969 224.371094 C 428.402344 224.484375 428.410156 224.597656 428.441406 224.707031 L 432.996094 240.289062 C 433.054688 240.484375 433.171875 240.636719 433.347656 240.746094 C 433.523438 240.851562 433.710938 240.886719 433.914062 240.847656 C 435.960938 240.449219 437.976562 239.933594 439.964844 239.300781 C 450.632812 235.921875 461.964844 228.957031 471.875 219.6875 C 481.78125 210.421875 489.488281 199.578125 493.566406 189.15625 C 494.332031 187.214844 494.980469 185.238281 495.515625 183.222656 C 495.566406 183.023438 495.546875 182.832031 495.453125 182.648438 C 495.355469 182.46875 495.210938 182.339844 495.019531 182.269531 Z M 479.777344 176.6875 " fill-opacity="1" fill-rule="nonzero"/></g></g></g><g clip-path="url(#527a5bb569)"><g clip-path="url(#5c90d74099)"><g clip-path="url(#c5a8197e1f)"><path fill="#ffffff" d="M 492.175781 185.769531 C 492.070312 185.730469 491.957031 185.714844 491.84375 185.722656 C 491.726562 185.730469 491.617188 185.765625 491.515625 185.820312 C 491.417969 185.875 491.332031 185.949219 491.261719 186.042969 C 491.195312 186.136719 491.148438 186.238281 491.125 186.351562 C 489.257812 195.191406 482.484375 206.183594 472.171875 215.832031 C 461.859375 225.476562 450.4375 231.507812 441.496094 232.777344 C 441.378906 232.792969 441.273438 232.835938 441.175781 232.898438 C 441.078125 232.957031 441 233.039062 440.9375 233.136719 C 440.875 233.234375 440.835938 233.339844 440.820312 233.453125 C 440.800781 233.566406 440.808594 233.679688 440.84375 233.792969 L 445.398438 249.371094 C 445.457031 249.570312 445.574219 249.722656 445.75 249.828125 C 445.925781 249.9375 446.113281 249.972656 446.316406 249.933594 C 448.363281 249.53125 450.378906 249.015625 452.367188 248.382812 C 463.035156 245.003906 474.367188 238.039062 484.277344 228.773438 C 494.183594 219.503906 501.886719 208.660156 505.96875 198.242188 C 506.734375 196.300781 507.382812 194.320312 507.917969 192.304688 C 507.96875 192.105469 507.949219 191.917969 507.851562 191.734375 C 507.757812 191.550781 507.613281 191.425781 507.421875 191.355469 Z M 492.175781 185.769531 " fill-opacity="1" fill-rule="nonzero"/></g></g></g><g clip-path="url(#15e3dceb0c)"><g clip-path="url(#aabaa51e53)"><g clip-path="url(#23100f5754)"><path fill="#ffffff" d="M 479.96875 188.046875 C 479.875 187.976562 479.769531 187.929688 479.65625 187.90625 C 479.546875 187.882812 479.433594 187.882812 479.320312 187.910156 C 479.207031 187.933594 479.105469 187.980469 479.011719 188.050781 C 478.921875 188.121094 478.847656 188.207031 478.792969 188.308594 C 474.523438 196.269531 464.941406 204.925781 452.335938 211.292969 C 439.734375 217.664062 427.082031 220.25 418.140625 218.964844 C 418.027344 218.949219 417.914062 218.957031 417.800781 218.988281 C 417.691406 219.023438 417.59375 219.078125 417.503906 219.152344 C 417.417969 219.226562 417.351562 219.316406 417.300781 219.421875 C 417.253906 219.527344 417.230469 219.640625 417.230469 219.753906 L 417.238281 235.988281 C 417.238281 236.195312 417.308594 236.375 417.445312 236.523438 C 417.585938 236.675781 417.757812 236.761719 417.960938 236.78125 C 420.039062 236.972656 422.117188 237.042969 424.203125 236.992188 C 435.390625 236.738281 448.222656 233.230469 460.332031 227.109375 C 472.4375 220.988281 482.875 212.742188 489.710938 203.882812 C 490.988281 202.234375 492.167969 200.515625 493.246094 198.730469 C 493.351562 198.554688 493.382812 198.367188 493.34375 198.164062 C 493.300781 197.960938 493.199219 197.800781 493.035156 197.679688 Z M 479.96875 188.046875 " fill-opacity="1" fill-rule="nonzero"/></g></g></g><g clip-path="url(#d8a70b3f66)"><g clip-path="url(#a45c9dbd85)"><g clip-path="url(#61b4319a94)"><path fill="#000000" d="M 805.355469 119.144531 L 807.773438 234.917969 L 730.1875 236.535156 L 727.769531 120.765625 Z M 805.355469 119.144531 " fill-opacity="1" fill-rule="nonzero"/></g></g></g><g clip-path="url(#216a5b9a89)"><g clip-path="url(#bd152ead98)"><g clip-path="url(#e02fc280a9)"><path fill="#000000" d="M 618.90625 55.863281 L 625.851562 104.710938 L 601.429688 108.183594 L 594.480469 59.335938 Z M 618.90625 55.863281 " fill-opacity="1" fill-rule="nonzero"/></g></g></g><g clip-path="url(#3fb5d9695c)"><g clip-path="url(#cd8079fe73)"><g clip-path="url(#6b49136e36)"><path fill="#000000" d="M 660.335938 53.558594 L 667.28125 102.40625 L 642.859375 105.878906 L 635.910156 57.03125 Z M 660.335938 53.558594 " fill-opacity="1" fill-rule="nonzero"/></g></g></g><g clip-path="url(#b04fa5556b)"><g clip-path="url(#67dad2b9b2)"><path fill="#ffffff" d="M 605.675781 63.398438 L 614.46875 63.398438 L 614.46875 72.191406 L 605.675781 72.191406 Z M 605.675781 63.398438 " fill-opacity="1" fill-rule="nonzero"/></g></g><g clip-path="url(#997ac1038b)"><g clip-path="url(#8e0d3441a5)"><path fill="#ffffff" d="M 647.222656 60.945312 L 656.015625 60.945312 L 656.015625 69.738281 L 647.222656 69.738281 Z M 647.222656 60.945312 " fill-opacity="1" fill-rule="nonzero"/></g></g><g clip-path="url(#8cd87e9e99)"><g clip-path="url(#7e46ad5566)"><g clip-path="url(#0480af3abd)"><path fill="#ffffff" d="M 578.015625 25.101562 L 588.785156 73.203125 L 549.566406 81.984375 L 538.796875 33.882812 Z M 578.015625 25.101562 " fill-opacity="1" fill-rule="nonzero"/></g></g></g><g clip-path="url(#6c12dbda06)"><g clip-path="url(#ecef9359ac)"><g clip-path="url(#63401d2ba6)"><path fill="#d9d9d9" d="M 567.820312 39.320312 L 573.507812 64.722656 L 559.757812 67.800781 L 554.070312 42.398438 Z M 567.820312 39.320312 " fill-opacity="1" fill-rule="nonzero"/></g></g></g><g clip-path="url(#5f10880a4f)"><g clip-path="url(#5b5dbec38a)"><path fill="#fde2e5" d="M 554.09375 147.441406 L 610.1875 147.441406 L 610.1875 203.535156 L 554.09375 203.535156 Z M 554.09375 147.441406 " fill-opacity="1" fill-rule="nonzero"/></g></g><g clip-path="url(#f913939a14)"><g clip-path="url(#314ab0e733)"><g clip-path="url(#8f3fa46f64)"><path fill="#ffffff" d="M 312.03125 320.074219 L 316.550781 536.589844 L 196.835938 539.089844 L 192.316406 322.574219 Z M 312.03125 320.074219 " fill-opacity="1" fill-rule="nonzero"/></g></g></g><g clip-path="url(#0f4a8eb68e)"><g clip-path="url(#0ad751ea02)"><g clip-path="url(#8f7736ab46)"><path fill="#d9d9d9" d="M 510.125 383.402344 C 511.671875 384.503906 512.035156 386.648438 510.9375 388.195312 C 492.179688 414.578125 498.386719 451.308594 524.769531 470.066406 C 526.316406 471.164062 526.679688 473.3125 525.582031 474.855469 C 524.480469 476.402344 522.335938 476.765625 520.789062 475.667969 C 513.574219 470.539062 507.578125 464.148438 502.96875 456.675781 C 498.515625 449.453125 495.542969 441.539062 494.125 433.144531 C 492.707031 424.75 492.917969 416.292969 494.746094 408.015625 C 496.644531 399.441406 500.207031 391.4375 505.335938 384.222656 C 506.433594 382.667969 508.582031 382.304688 510.125 383.402344 Z M 510.125 383.402344 " fill-opacity="1" fill-rule="nonzero"/></g></g></g><g clip-path="url(#03c5475238)"><g clip-path="url(#c3eb47ab85)"><g clip-path="url(#1e56983d34)"><path fill="#ffffff" d="M 641.78125 320.074219 L 646.300781 536.589844 L 526.585938 539.089844 L 522.066406 322.574219 Z M 641.78125 320.074219 " fill-opacity="1" fill-rule="nonzero"/></g></g></g><g clip-path="url(#05e3f392a4)"><g clip-path="url(#cf51b19934)"><g clip-path="url(#d3d4f6fddc)"><path fill="#d9d9d9" d="M 317.597656 478.066406 C 315.265625 476.457031 314.679688 473.261719 316.289062 470.929688 C 343.726562 431.144531 333.675781 376.445312 293.890625 349.007812 C 291.558594 347.402344 290.96875 344.207031 292.578125 341.875 C 294.1875 339.542969 297.382812 338.957031 299.714844 340.5625 C 310.589844 348.066406 319.679688 357.472656 326.722656 368.535156 C 333.523438 379.21875 338.128906 390.96875 340.425781 403.472656 C 342.722656 415.972656 342.585938 428.601562 340.03125 440.996094 C 337.382812 453.839844 332.230469 465.863281 324.730469 476.742188 C 323.125 479.085938 319.929688 479.671875 317.597656 478.066406 Z M 317.597656 478.066406 " fill-opacity="1" fill-rule="nonzero"/></g></g></g><g clip-path="url(#8ac5171e3e)"><g clip-path="url(#9ef4daf6b3)"><g clip-path="url(#bf0542e8a2)"><g clip-path="url(#cb2fa23c37)"><path fill="#000000" d="M 726.445312 283.917969 C 741.457031 285.625 755.011719 274.816406 756.722656 259.777344 C 756.878906 258.410156 755.898438 257.179688 754.535156 257.023438 L 705.113281 251.398438 C 703.746094 251.242188 702.515625 252.226562 702.359375 253.59375 C 700.648438 268.632812 711.429688 282.207031 726.445312 283.917969 Z M 726.445312 283.917969 " fill-opacity="1" fill-rule="evenodd"/></g></g></g></g><g clip-path="url(#28914866e4)"><g clip-path="url(#d441b018a8)"><g clip-path="url(#827c0de999)"><path fill="#ff3131" d="M 733.292969 276.089844 C 740.621094 276.875 747.199219 271.574219 747.984375 264.242188 C 748.058594 263.578125 747.574219 262.980469 746.910156 262.90625 L 722.78125 260.320312 C 722.117188 260.25 721.515625 260.730469 721.445312 261.398438 C 720.660156 268.726562 725.964844 275.304688 733.292969 276.089844 Z M 733.292969 276.089844 " fill-opacity="1" fill-rule="evenodd"/></g></g></g></svg>