<svg xmlns="http://www.w3.org/2000/svg" xmlns:xlink="http://www.w3.org/1999/xlink" width="1280" zoomAndPan="magnify" viewBox="0 0 960 540.000001" height="720" preserveAspectRatio="xMidYMid meet" version="1.0"><defs><clipPath id="7b296b11bc"><path d="M 141.34375 401.355469 L 775.066406 401.355469 L 775.066406 539 L 141.34375 539 Z M 141.34375 401.355469 " clip-rule="nonzero"/></clipPath><clipPath id="0a334747fa"><path d="M 610.59375 401.355469 L 959.113281 401.355469 L 959.113281 539 L 610.59375 539 Z M 610.59375 401.355469 " clip-rule="nonzero"/></clipPath><clipPath id="d96f4a6df6"><path d="M 917.605469 423 L 959.113281 423 L 959.113281 539 L 917.605469 539 Z M 917.605469 423 " clip-rule="nonzero"/></clipPath><clipPath id="0c88cc695a"><path d="M 696 401.355469 L 755 401.355469 L 755 449 L 696 449 Z M 696 401.355469 " clip-rule="nonzero"/></clipPath><clipPath id="047ad7b116"><path d="M 860 401.355469 L 913 401.355469 L 913 419 L 860 419 Z M 860 401.355469 " clip-rule="nonzero"/></clipPath><clipPath id="8e3c467661"><path d="M 837 401.355469 L 866 401.355469 L 866 433 L 837 433 Z M 837 401.355469 " clip-rule="nonzero"/></clipPath><clipPath id="c15506a2af"><path d="M 773 401.355469 L 834 401.355469 L 834 452 L 773 452 Z M 773 401.355469 " clip-rule="nonzero"/></clipPath><clipPath id="25de0dbbdc"><path d="M 656 401.355469 L 935 401.355469 L 935 539 L 656 539 Z M 656 401.355469 " clip-rule="nonzero"/></clipPath><clipPath id="9af99c9efc"><path d="M 862 401.355469 L 948 401.355469 L 948 539 L 862 539 Z M 862 401.355469 " clip-rule="nonzero"/></clipPath><clipPath id="8eafd5f712"><path d="M 762 401.355469 L 796 401.355469 L 796 422 L 762 422 Z M 762 401.355469 " clip-rule="nonzero"/></clipPath><clipPath id="473dabb137"><path d="M 691 503 L 758 503 L 758 539 L 691 539 Z M 691 503 " clip-rule="nonzero"/></clipPath><clipPath id="62da6e7e08"><path d="M 668 439 L 756 439 L 756 539 L 668 539 Z M 668 439 " clip-rule="nonzero"/></clipPath><clipPath id="16557a4cd6"><path d="M 892 474 L 938 474 L 938 539 L 892 539 Z M 892 474 " clip-rule="nonzero"/></clipPath><clipPath id="1b3333d6d5"><path d="M 0.886719 401.355469 L 349.402344 401.355469 L 349.402344 539 L 0.886719 539 Z M 0.886719 401.355469 " clip-rule="nonzero"/></clipPath><clipPath id="d47990fd4c"><path d="M 0.886719 422.855469 L 42.386719 422.855469 L 42.386719 539 L 0.886719 539 Z M 0.886719 422.855469 " clip-rule="nonzero"/></clipPath><clipPath id="5dd2ae2831"><path d="M 205 401.355469 L 264 401.355469 L 264 449 L 205 449 Z M 205 401.355469 " clip-rule="nonzero"/></clipPath><clipPath id="9dfb105d40"><path d="M 47 401.355469 L 100 401.355469 L 100 419 L 47 419 Z M 47 401.355469 " clip-rule="nonzero"/></clipPath><clipPath id="521b20e88b"><path d="M 94 401.355469 L 123 401.355469 L 123 433 L 94 433 Z M 94 401.355469 " clip-rule="nonzero"/></clipPath><clipPath id="31021842ac"><path d="M 126 401.355469 L 187 401.355469 L 187 451 L 126 451 Z M 126 401.355469 " clip-rule="nonzero"/></clipPath><clipPath id="6d21bd8baa"><path d="M 25 401.355469 L 304 401.355469 L 304 539 L 25 539 Z M 25 401.355469 " clip-rule="nonzero"/></clipPath><clipPath id="11d1ba64e6"><path d="M 12 401.355469 L 98 401.355469 L 98 539 L 12 539 Z M 12 401.355469 " clip-rule="nonzero"/></clipPath><clipPath id="6de1a7188a"><path d="M 164 401.355469 L 198 401.355469 L 198 422 L 164 422 Z M 164 401.355469 " clip-rule="nonzero"/></clipPath><clipPath id="be2be7730a"><path d="M 202 503 L 269 503 L 269 539 L 202 539 Z M 202 503 " clip-rule="nonzero"/></clipPath><clipPath id="9f69b8dd4c"><path d="M 204 439 L 292 439 L 292 539 L 204 539 Z M 204 439 " clip-rule="nonzero"/></clipPath><clipPath id="42f10ec299"><path d="M 22 474 L 68 474 L 68 539 L 22 539 Z M 22 474 " clip-rule="nonzero"/></clipPath></defs><g clip-path="url(#7b296b11bc)"><path fill="#eaf2fd" d="M 141.34375 401.355469 L 775.273438 401.355469 L 775.273438 539 L 141.34375 539 Z M 141.34375 401.355469 " fill-opacity="1" fill-rule="nonzero"/></g><g clip-path="url(#0a334747fa)"><path fill="#daf2fe" d="M 959.4375 539.4375 C 957.089844 518.464844 950.058594 495.972656 945.75 475.601562 C 927.4375 460.183594 920.738281 435.328125 915.003906 412.078125 C 913.210938 404.8125 911.703125 394.722656 909.914062 387.457031 C 895.726562 380.859375 881.90625 373.476562 868.535156 365.355469 C 866.222656 363.953125 862.851562 364.496094 862.425781 361.824219 C 854.359375 370.65625 845.007812 383.113281 839.277344 393.609375 C 835.9375 389.441406 832.273438 384.800781 830.464844 379.773438 C 822.644531 358 814.84375 337.875 808.265625 315.695312 C 805.199219 316.8125 804.050781 319.761719 803.097656 322.882812 C 795.355469 348.199219 790.300781 377.519531 767.082031 390.21875 C 740.863281 404.554688 715 417.675781 687.859375 430.171875 C 684.390625 435.886719 685.226562 443.417969 681.871094 449.199219 C 676.890625 457.78125 664.28125 458.964844 656.214844 463.34375 C 645.140625 469.351562 635.671875 479.046875 622.304688 479.761719 C 619.910156 479.890625 618.617188 482.5625 617.867188 484.839844 C 612.671875 500.628906 611.9375 522.304688 610.59375 539.4375 L 959.4375 539.4375 " fill-opacity="1" fill-rule="nonzero"/></g><path fill="#b2e4fb" d="M 912.566406 403.671875 C 907.863281 409.34375 903.15625 415.019531 898.453125 420.695312 C 897.472656 421.875 896.453125 423.15625 896.300781 424.679688 C 896.175781 425.898438 896.625 427.09375 897.105469 428.214844 C 906.503906 450.234375 929.699219 464.167969 938.542969 486.417969 C 925.675781 476.023438 912.8125 465.628906 899.945312 455.234375 C 895.675781 451.789062 891.363281 448.292969 888.070312 443.902344 C 885.460938 440.417969 883.558594 436.460938 881.144531 432.835938 C 878.285156 428.546875 872.132812 424.300781 870.503906 419.785156 C 883.761719 417.40625 903.164062 415.015625 912.566406 403.671875 " fill-opacity="1" fill-rule="nonzero"/><g clip-path="url(#d96f4a6df6)"><path fill="#b2e4fb" d="M 936.644531 475.582031 C 938.21875 478.738281 939.726562 481.964844 940.507812 485.40625 C 941.367188 489.203125 941.316406 493.140625 941.179688 497.03125 C 940.667969 511.144531 939.113281 525.644531 941.222656 539.4375 L 959.4375 539.4375 C 957.089844 518.464844 950.058594 495.972656 945.75 475.601562 C 930.316406 462.609375 923.136719 442.910156 917.828125 423.117188 C 917.339844 428.546875 918.3125 433.898438 919.816406 439.148438 C 923.519531 452.066406 930.679688 463.644531 936.644531 475.582031 " fill-opacity="1" fill-rule="nonzero"/></g><g clip-path="url(#0c88cc695a)"><path fill="#f5f7fe" d="M 705.695312 446.503906 C 711.933594 443.515625 718.171875 440.523438 724.410156 437.535156 C 729.414062 435.132812 734.464844 432.707031 738.820312 429.261719 C 743.253906 425.753906 746.859375 421.273438 751.378906 417.878906 C 752.140625 417.304688 752.949219 416.742188 753.429688 415.917969 C 754.003906 414.941406 754.027344 413.746094 754.035156 412.609375 C 754.070312 407.472656 754.105469 402.335938 754.140625 397.199219 C 735.601562 407.089844 717.109375 416.433594 698.078125 425.40625 C 696.359375 432.460938 696.1875 442.128906 696.371094 448.253906 C 699.425781 449.5 702.890625 447.847656 705.695312 446.503906 " fill-opacity="1" fill-rule="nonzero"/></g><path fill="#f5f7fe" d="M 787.714844 491.511719 C 785.363281 489.652344 782.75 488.089844 780.691406 485.914062 C 777.847656 482.910156 776.257812 478.972656 774.386719 475.285156 C 768.015625 462.734375 755.847656 449.796875 743.324219 443.28125 C 743.707031 446.191406 746.046875 450.453125 746.613281 452.261719 C 750.019531 463.125 753 474.125 755.605469 485.203125 C 758.375 485.386719 761.554688 485.792969 763.070312 488.117188 C 763.605469 488.933594 763.863281 489.910156 764.425781 490.707031 C 766.984375 494.339844 772.695312 491.757812 777.0625 492.554688 C 779.707031 493.039062 781.882812 494.84375 783.925781 496.585938 C 792.605469 503.976562 801.28125 511.371094 809.957031 518.761719 C 806.773438 514.597656 803.488281 510.238281 799.894531 505.335938 C 796.25 500.363281 792.546875 495.332031 787.714844 491.511719 " fill-opacity="1" fill-rule="nonzero"/><path fill="#b2e4fb" d="M 634.523438 513.742188 C 638.496094 522.230469 643.285156 529.59375 641.789062 538.851562 C 646.664062 516.523438 651.832031 493.511719 665.097656 474.90625 C 670.632812 467.148438 677.636719 460.003906 680.585938 451.027344 C 674.972656 457.96875 663.664062 459.300781 656.214844 463.34375 C 650.226562 466.589844 644.707031 470.90625 638.789062 474.308594 C 633.941406 483.421875 627.472656 492.058594 629.441406 501.84375 C 630.292969 506.085938 632.691406 509.820312 634.523438 513.742188 " fill-opacity="1" fill-rule="nonzero"/><g clip-path="url(#047ad7b116)"><path fill="#f5f7fe" d="M 870.285156 418.433594 C 878.457031 418.753906 886.382812 415.832031 893.90625 412.621094 C 900.53125 409.796875 907.320312 406.421875 912.863281 401.898438 C 911.902344 396.867188 910.953125 391.6875 909.914062 387.457031 C 895.726562 380.859375 881.90625 373.476562 868.535156 365.355469 C 866.222656 363.953125 862.851562 364.496094 862.425781 361.824219 C 862.121094 362.160156 861.808594 362.527344 861.5 362.871094 C 859.804688 369.523438 862.3125 379.253906 862.992188 384.945312 C 863.398438 388.316406 867.324219 418.320312 870.285156 418.433594 " fill-opacity="1" fill-rule="nonzero"/></g><g clip-path="url(#8e3c467661)"><path fill="#b2e4fb" d="M 865.535156 432 C 860.671875 407.628906 862.496094 387.988281 864.152344 363.828125 C 863.273438 363.460938 862.601562 362.914062 862.425781 361.824219 C 854.359375 370.65625 845.007812 383.113281 839.277344 393.609375 C 838.734375 392.933594 838.1875 392.242188 837.636719 391.542969 C 837.351562 392.867188 837.195312 394.113281 837.179688 395.246094 C 837.082031 404.300781 843.199219 413.234375 847.84375 420.566406 C 849.179688 422.675781 866.214844 435.402344 865.535156 432 " fill-opacity="1" fill-rule="nonzero"/></g><g clip-path="url(#c15506a2af)"><path fill="#f5f7fe" d="M 802.769531 448.808594 C 805.15625 447.257812 817.75 437.128906 819.210938 434.6875 C 820.328125 432.824219 820.964844 430.722656 821.589844 428.644531 C 823.40625 422.625 825.203125 416.027344 822.8125 410.214844 C 821.542969 407.121094 819.207031 404.609375 817.460938 401.757812 C 811 391.214844 813.285156 377.734375 815.78125 365.625 C 819.074219 373.980469 825.769531 380.152344 833.25 385.390625 C 832.128906 383.578125 831.160156 381.703125 830.464844 379.773438 C 822.644531 358 814.84375 337.875 808.265625 315.695312 C 806.058594 316.5 804.851562 318.257812 803.988281 320.335938 C 803.691406 321.578125 803.394531 322.820312 803.097656 324.0625 C 800.460938 335.039062 797.792969 346.109375 792.910156 356.285156 C 792.871094 356.363281 792.832031 356.4375 792.792969 356.515625 C 789.917969 364.171875 786.433594 371.355469 781.738281 377.46875 C 779.804688 381.839844 778.367188 386.34375 777.984375 391.136719 C 777.527344 396.867188 778.640625 402.625 778.371094 408.367188 C 778.015625 415.953125 775.269531 423.191406 773.542969 430.589844 C 769.242188 449.050781 793.40625 454.878906 802.769531 448.808594 " fill-opacity="1" fill-rule="nonzero"/><path fill="#f5f7fe" d="M 802.769531 448.808594 C 805.15625 447.257812 817.75 437.128906 819.210938 434.6875 C 820.328125 432.824219 820.964844 430.722656 821.589844 428.644531 C 823.40625 422.625 825.203125 416.027344 822.8125 410.214844 C 821.542969 407.121094 819.207031 404.609375 817.460938 401.757812 C 811 391.214844 813.285156 377.734375 815.78125 365.625 C 819.074219 373.980469 825.769531 380.152344 833.25 385.390625 C 832.128906 383.578125 831.160156 381.703125 830.464844 379.773438 C 822.644531 358 814.84375 337.875 808.265625 315.695312 C 806.058594 316.5 804.851562 318.257812 803.988281 320.335938 C 803.691406 321.578125 803.394531 322.820312 803.097656 324.0625 C 800.460938 335.039062 797.792969 346.109375 792.910156 356.285156 C 792.871094 356.363281 792.832031 356.4375 792.792969 356.515625 C 789.917969 364.171875 786.433594 371.355469 781.738281 377.46875 C 779.804688 381.839844 778.367188 386.34375 777.984375 391.136719 C 777.527344 396.867188 778.640625 402.625 778.371094 408.367188 C 778.015625 415.953125 775.269531 423.191406 773.542969 430.589844 C 769.242188 449.050781 793.40625 454.878906 802.769531 448.808594 " fill-opacity="1" fill-rule="nonzero"/></g><g clip-path="url(#25de0dbbdc)"><path fill="#b2e4fb" d="M 916.9375 491.238281 C 906.507812 477.566406 893.441406 466.191406 881.070312 454.246094 C 884.132812 458.109375 883.171875 463.652344 883.898438 468.53125 C 884.792969 474.535156 888.378906 479.746094 891.863281 484.714844 C 896.316406 491.0625 900.769531 497.414062 905.222656 503.765625 C 906.257812 505.234375 907.308594 506.75 907.753906 508.488281 C 908.109375 509.871094 908.0625 511.316406 908.015625 512.742188 C 907.804688 518.820312 907.597656 524.898438 907.386719 530.976562 C 896.746094 537.320312 883.601562 537.152344 871.21875 536.796875 C 860.398438 536.488281 849.476562 536.164062 838.980469 533.511719 C 831.21875 531.546875 823.863281 528.210938 817.597656 523.191406 C 808.8125 507.152344 800.511719 490.539062 793.132812 474.371094 C 801.066406 462.605469 809 450.839844 816.933594 439.074219 C 821.074219 432.929688 827.863281 425.777344 826.054688 418.589844 C 822.664062 424.410156 817.21875 434.496094 811.882812 438.605469 C 807.652344 441.867188 803.175781 443.699219 798.941406 446.960938 C 791.03125 447.105469 784.1875 442.542969 776.519531 440.605469 C 784.609375 436.242188 787.660156 426.367188 789.980469 417.46875 C 793.625 403.484375 797.265625 389.5 800.910156 375.511719 C 802.339844 370.023438 803.726562 363.980469 801.269531 358.863281 C 800.5 357.265625 799.367188 355.792969 799.066406 354.042969 C 798.738281 352.113281 799.476562 350.183594 800.167969 348.355469 C 803.976562 338.316406 806.847656 327.921875 808.730469 317.351562 C 808.050781 317.085938 807.355469 316.835938 806.648438 316.597656 C 804.761719 318.023438 803.859375 320.390625 803.097656 322.882812 C 795.355469 348.199219 790.300781 377.519531 767.082031 390.21875 C 762.679688 392.625 758.289062 394.984375 753.898438 397.328125 C 753.648438 403.613281 752.886719 409.878906 751.671875 416.050781 C 738.75 436.660156 719.019531 456.875 701.550781 473.734375 C 694.949219 480.105469 688.117188 486.628906 679.605469 490.058594 C 675.972656 507.523438 659.621094 522.414062 656.59375 539.4375 L 675.792969 539.4375 C 675.171875 535.09375 674.984375 530.691406 675.292969 526.316406 C 693.132812 524.25 708.328125 514.203125 718.066406 506.3125 C 721.46875 503.558594 725.289062 501.191406 727.832031 497.628906 C 730.03125 494.550781 731.285156 490.917969 732.484375 487.332031 C 737.25 473.074219 741.371094 458.722656 745.09375 444.242188 C 756.980469 451.015625 768.316406 463.324219 774.386719 475.285156 C 776.257812 478.972656 777.847656 482.910156 780.691406 485.914062 C 782.75 488.089844 785.363281 489.652344 787.714844 491.511719 C 792.546875 495.332031 796.25 500.363281 799.894531 505.335938 C 804.21875 511.242188 808.105469 516.351562 811.894531 521.296875 C 811.917969 521.566406 811.964844 521.871094 812.058594 522.25 C 812.421875 523.722656 814.136719 525.128906 815.90625 526.523438 C 817.585938 528.703125 819.277344 530.910156 820.992188 533.160156 C 821.488281 535.164062 821.578125 537.3125 821.777344 539.4375 L 934.929688 539.4375 C 934.941406 539.148438 934.953125 538.859375 934.957031 538.570312 C 935.128906 521.375 927.367188 504.910156 916.9375 491.238281 " fill-opacity="1" fill-rule="nonzero"/></g><g clip-path="url(#9af99c9efc)"><path fill="#8acfea" d="M 876.546875 454.003906 C 878.964844 457.59375 882.394531 460.355469 885.300781 463.566406 C 894.824219 474.09375 898.308594 488.976562 907.605469 499.703125 C 910.625 503.1875 914.25 506.226562 916.492188 510.257812 C 918.484375 513.84375 919.238281 517.964844 919.964844 522.007812 C 921.007812 527.816406 922.050781 533.625 923.09375 539.4375 L 947.820312 539.4375 C 945.578125 524.046875 943.476562 506.027344 944.1875 491.574219 C 941.125 486.292969 935.632812 483.007812 930.703125 479.40625 C 907.464844 462.445312 895.386719 433.679688 870.339844 419.527344 C 866.695312 409.058594 864.160156 398.210938 862.710938 387.21875 C 862.597656 389.519531 862.5 391.582031 862.503906 393.152344 C 862.554688 405.566406 863.144531 417.027344 863.191406 429.4375 C 871.015625 434.738281 871.273438 446.160156 876.546875 454.003906 " fill-opacity="1" fill-rule="nonzero"/></g><path fill="#b2e4fb" d="M 689.804688 462.894531 C 690.492188 465.902344 693.191406 470.953125 692.941406 473.894531 C 694.347656 457.28125 695.789062 440.515625 700.09375 424.445312 C 696.039062 426.367188 691.964844 428.277344 687.859375 430.171875 C 687.65625 430.503906 687.46875 430.84375 687.296875 431.191406 C 686.742188 437.957031 687.050781 444.914062 687.851562 451.621094 C 688.304688 455.410156 688.957031 459.171875 689.804688 462.894531 " fill-opacity="1" fill-rule="nonzero"/><path fill="#8acfea" d="M 672.667969 456.761719 C 667.265625 459.285156 660.957031 460.765625 656.214844 463.34375 C 651.464844 465.917969 647.003906 469.152344 642.410156 472.082031 C 642.078125 473.566406 641.785156 474.96875 641.507812 476.195312 C 639.683594 484.234375 639.152344 492.699219 641.167969 500.6875 C 644.558594 486.757812 652.683594 474.027344 663.890625 465.085938 C 667.058594 462.5625 670.589844 460.167969 672.667969 456.761719 " fill-opacity="1" fill-rule="nonzero"/><g clip-path="url(#8eafd5f712)"><path fill="#8acfea" d="M 792.640625 371.414062 C 793.363281 366.550781 796.652344 356.332031 794.9375 350.421875 C 789.480469 366.914062 782.0625 382.027344 767.082031 390.21875 C 765.566406 391.046875 764.054688 391.847656 762.542969 392.667969 C 762.617188 393.097656 762.78125 393.503906 763.09375 393.84375 C 763.941406 394.773438 765.367188 394.765625 766.59375 395.054688 C 771.417969 396.175781 773.328125 402.148438 773 407.089844 C 772.671875 412.035156 771.011719 417.042969 772.242188 421.839844 C 774.945312 410.003906 784.191406 400.761719 788.578125 389.441406 C 790.808594 383.683594 791.730469 377.519531 792.640625 371.414062 " fill-opacity="1" fill-rule="nonzero"/></g><g clip-path="url(#473dabb137)"><path fill="#b2e4fb" d="M 692.917969 537.527344 C 693.90625 538.167969 694.902344 538.800781 695.898438 539.4375 L 757.476562 539.4375 C 747.390625 538.613281 737.0625 536.703125 730.9375 529.007812 C 733.9375 521.152344 739.890625 516.019531 743.628906 508.960938 C 747.953125 500.796875 732.609375 504.054688 728.015625 505.585938 C 722.414062 507.449219 717.378906 510.703125 712.675781 514.269531 C 705.097656 520.011719 698.203125 526.65625 692.1875 534.019531 C 691.796875 534.5 691.386719 535.039062 691.410156 535.660156 C 691.4375 536.492188 692.21875 537.074219 692.917969 537.527344 " fill-opacity="1" fill-rule="nonzero"/></g><g clip-path="url(#62da6e7e08)"><path fill="#8acfea" d="M 712.585938 539.4375 C 718.808594 533.644531 725.6875 528.46875 732.117188 522.871094 C 741.875 514.378906 756.8125 503.339844 755.402344 490.476562 C 754.222656 479.691406 753.003906 468.761719 749.058594 458.652344 C 746.675781 452.542969 743.242188 446.175781 744.792969 439.800781 C 737.964844 457.777344 729.515625 475.824219 719.050781 491.953125 C 710.261719 505.503906 698.515625 517.816406 683.453125 523.632812 C 681.847656 527.175781 671.285156 524.464844 669.277344 527.796875 C 668.773438 528.636719 668.710938 529.660156 668.660156 530.640625 C 668.515625 533.574219 668.367188 536.503906 668.222656 539.4375 L 712.585938 539.4375 " fill-opacity="1" fill-rule="nonzero"/></g><path fill="#78b3d6" d="M 671.898438 529.90625 C 675.421875 530.910156 679.011719 531.621094 682.617188 532.261719 C 684.570312 532.605469 687.722656 533.628906 689.691406 532.632812 C 691.496094 531.71875 692.257812 529.492188 693.132812 527.832031 C 694.417969 525.398438 695.695312 522.960938 696.972656 520.519531 C 698.464844 518.90625 699.988281 517.269531 701.007812 515.429688 C 701.203125 515.078125 701.152344 514.699219 700.972656 514.402344 C 701.8125 513.738281 702.625 513.042969 703.382812 512.28125 C 703.777344 511.882812 703.515625 511.308594 703.058594 511.179688 C 697.273438 516.457031 690.757812 520.8125 683.453125 523.632812 C 682.636719 525.4375 679.496094 525.621094 676.34375 525.804688 C 675.339844 526.113281 674.320312 526.398438 673.292969 526.65625 C 672.882812 526.757812 672.609375 526.976562 672.417969 527.242188 C 670.859375 527.1875 670.226562 529.433594 671.898438 529.90625 " fill-opacity="1" fill-rule="nonzero"/><path fill="#8acfea" d="M 776.699219 440.984375 C 776.722656 441.152344 776.746094 441.320312 776.796875 441.492188 C 774.949219 444.808594 778.71875 452.179688 779.835938 455.324219 C 782.375 462.492188 785.804688 469.246094 789.878906 475.65625 C 790.714844 476.972656 792.492188 476.335938 792.644531 474.910156 C 792.761719 473.808594 792.886719 472.707031 793.019531 471.601562 C 793.117188 471.386719 793.179688 471.144531 793.152344 470.839844 C 793.148438 470.78125 793.144531 470.71875 793.136719 470.660156 C 793.457031 468.128906 793.824219 465.585938 794.253906 463.046875 C 795.210938 459.941406 795.835938 456.84375 796.148438 453.703125 C 796.464844 452.382812 796.222656 448.191406 796.582031 446.890625 C 789.578125 444.40625 783.328125 444.398438 776.699219 440.984375 " fill-opacity="1" fill-rule="nonzero"/><g clip-path="url(#16557a4cd6)"><path fill="#78b3d6" d="M 905.984375 496.707031 C 907.398438 498.515625 908.730469 500.386719 909.996094 502.304688 C 912.382812 504.800781 914.820312 507.253906 916.492188 510.257812 C 918.484375 513.84375 919.238281 517.964844 919.964844 522.007812 C 920.664062 525.894531 921.359375 529.78125 922.058594 533.671875 C 922.644531 535.59375 923.234375 537.515625 923.820312 539.4375 L 937.929688 539.4375 C 936.605469 536.179688 935.191406 532.980469 933.882812 529.871094 C 933.117188 528.042969 932.414062 526.203125 931.738281 524.355469 C 929.921875 517.261719 927.882812 510.257812 925.144531 503.699219 C 924.886719 503.085938 924.585938 502.519531 924.304688 501.9375 C 923.722656 500.246094 923.121094 498.5625 922.484375 496.890625 C 922.546875 496.390625 922.496094 495.179688 921.96875 495.472656 C 918.757812 497.234375 907.695312 488.125 894.078125 474.929688 C 893.761719 474.621094 893.324219 474.644531 892.957031 474.703125 C 896.660156 481.398438 899.722656 488.5625 903.964844 494.882812 C 904.625 495.503906 905.292969 496.117188 905.984375 496.707031 " fill-opacity="1" fill-rule="nonzero"/></g><path fill="#b2e4fb" d="M 878.613281 480.769531 C 877.15625 476.886719 875.140625 473.222656 873.898438 469.269531 C 872.222656 463.933594 872.003906 458.269531 870.984375 452.773438 C 869.964844 447.277344 867.929688 441.632812 863.578125 438.128906 C 856.386719 446.117188 847.066406 452.167969 836.84375 455.488281 C 831.425781 457.246094 825.785156 458.246094 820.378906 460.050781 C 816.289062 461.417969 804.996094 464.496094 803.84375 469.386719 C 803.164062 472.269531 805.335938 473.652344 808.304688 474.230469 C 808.457031 474.503906 808.730469 474.722656 809.15625 474.789062 C 818.679688 476.351562 821.679688 486.0625 825.546875 493.675781 C 826.132812 494.828125 826.714844 495.984375 827.304688 497.136719 C 830.042969 503.046875 832.941406 508.882812 836.148438 514.570312 C 836.980469 516.046875 839.160156 514.746094 838.402344 513.253906 C 837.472656 511.417969 836.554688 509.578125 835.628906 507.738281 C 830.347656 496.933594 819.921875 474.511719 822.300781 474.085938 C 822.90625 473.980469 823.167969 473.445312 823.164062 472.902344 C 830.28125 470.5 837.230469 466.1875 844.136719 468.613281 C 847.890625 469.933594 850.6875 473.039062 853.3125 476.027344 C 863.042969 487.09375 872.773438 498.160156 882.5 509.222656 C 882.269531 499.605469 881.996094 489.777344 878.613281 480.769531 " fill-opacity="1" fill-rule="nonzero"/><path fill="#8acfea" d="M 843.796875 462.808594 C 848.382812 461.898438 853.367188 461.847656 857.488281 464.0625 C 861.878906 466.429688 864.601562 470.953125 867.109375 475.269531 C 867.289062 469.734375 867.472656 464.199219 867.652344 458.667969 C 867.832031 453.234375 867.949219 447.53125 865.46875 442.699219 C 864.652344 446.726562 862.226562 450.402344 858.851562 452.742188 C 855.890625 454.789062 852.347656 455.785156 848.941406 456.949219 C 843.328125 458.875 837.273438 461.226562 832.433594 464.683594 C 835.15625 466.433594 840.757812 463.414062 843.796875 462.808594 " fill-opacity="1" fill-rule="nonzero"/><path fill="#f5f7fe" d="M 863.359375 453.574219 C 867.613281 449.089844 867.78125 440.871094 862.984375 436.777344 C 861.519531 435.523438 859.757812 434.675781 858.015625 433.84375 C 854.183594 432.011719 850.351562 430.175781 846.519531 428.34375 C 842.3125 427 838.0625 425.824219 833.835938 424.683594 C 830.597656 431.597656 826.800781 438.183594 822.132812 444.0625 C 819.148438 449.953125 815.21875 455.359375 810.449219 459.929688 C 806.53125 463.683594 800.910156 467.496094 798.808594 472.738281 C 803.539062 472.902344 808.269531 472.902344 813.003906 472.933594 C 816.410156 471.839844 819.726562 470.488281 822.316406 469.410156 C 835.234375 462.410156 849.882812 459.320312 863.359375 453.574219 " fill-opacity="1" fill-rule="nonzero"/><g clip-path="url(#1b3333d6d5)"><path fill="#daf2fe" d="M 0.558594 539.304688 C 2.90625 518.332031 9.933594 495.839844 14.246094 475.46875 C 32.558594 460.050781 39.257812 435.195312 44.992188 411.945312 C 46.78125 404.679688 48.289062 394.589844 50.082031 387.324219 C 64.265625 380.726562 78.089844 373.34375 91.460938 365.222656 C 93.773438 363.816406 97.144531 364.363281 97.570312 361.691406 C 105.636719 370.519531 114.988281 382.980469 120.71875 393.472656 C 124.058594 389.308594 127.722656 384.664062 129.53125 379.636719 C 137.351562 357.867188 145.148438 337.742188 151.730469 315.5625 C 154.796875 316.679688 155.945312 319.625 156.898438 322.75 C 164.640625 348.066406 169.695312 377.386719 192.914062 390.085938 C 219.132812 404.421875 244.996094 417.542969 272.136719 430.035156 C 275.605469 435.75 274.769531 443.285156 278.125 449.0625 C 283.105469 457.644531 295.714844 458.832031 303.78125 463.207031 C 314.855469 469.214844 324.324219 478.914062 337.691406 479.628906 C 340.082031 479.753906 341.378906 482.429688 342.128906 484.707031 C 347.324219 500.492188 348.058594 522.171875 349.402344 539.304688 L 0.558594 539.304688 " fill-opacity="1" fill-rule="nonzero"/></g><path fill="#b2e4fb" d="M 47.429688 403.535156 C 52.132812 409.210938 56.839844 414.886719 61.539062 420.5625 C 62.523438 421.742188 63.542969 423.023438 63.695312 424.546875 C 63.820312 425.765625 63.371094 426.960938 62.890625 428.082031 C 53.492188 450.101562 30.296875 464.035156 21.453125 486.28125 C 34.320312 475.890625 47.183594 465.496094 60.050781 455.101562 C 64.320312 451.652344 68.632812 448.15625 71.925781 443.765625 C 74.535156 440.285156 76.4375 436.324219 78.851562 432.703125 C 81.710938 428.414062 87.863281 424.167969 89.492188 419.648438 C 76.234375 417.269531 56.832031 414.882812 47.429688 403.535156 " fill-opacity="1" fill-rule="nonzero"/><g clip-path="url(#d47990fd4c)"><path fill="#b2e4fb" d="M 23.351562 475.449219 C 21.777344 478.605469 20.269531 481.832031 19.488281 485.273438 C 18.628906 489.070312 18.679688 493.007812 18.816406 496.898438 C 19.324219 511.007812 20.878906 525.507812 18.773438 539.304688 L 0.558594 539.304688 C 2.90625 518.332031 9.933594 495.839844 14.246094 475.46875 C 29.679688 462.472656 36.855469 442.773438 42.167969 422.984375 C 42.65625 428.410156 41.683594 433.765625 40.179688 439.015625 C 36.476562 451.933594 29.316406 463.511719 23.351562 475.449219 " fill-opacity="1" fill-rule="nonzero"/></g><g clip-path="url(#5dd2ae2831)"><path fill="#f5f7fe" d="M 254.300781 446.371094 C 248.0625 443.378906 241.824219 440.390625 235.585938 437.398438 C 230.582031 435 225.53125 432.570312 221.175781 429.128906 C 216.742188 425.621094 213.136719 421.140625 208.617188 417.746094 C 207.855469 417.171875 207.042969 416.605469 206.5625 415.785156 C 205.992188 414.804688 205.96875 413.609375 205.960938 412.476562 C 205.925781 407.339844 205.890625 402.203125 205.855469 397.066406 C 224.390625 406.957031 242.886719 416.296875 261.917969 425.273438 C 263.636719 432.328125 263.808594 441.992188 263.625 448.121094 C 260.570312 449.367188 257.101562 447.714844 254.300781 446.371094 " fill-opacity="1" fill-rule="nonzero"/></g><path fill="#f5f7fe" d="M 172.28125 491.378906 C 174.632812 489.519531 177.242188 487.957031 179.304688 485.78125 C 182.148438 482.777344 183.734375 478.839844 185.605469 475.152344 C 191.980469 462.601562 204.148438 449.660156 216.671875 443.144531 C 216.289062 446.058594 213.949219 450.320312 213.382812 452.128906 C 209.976562 462.992188 206.996094 473.992188 204.386719 485.070312 C 201.617188 485.253906 198.441406 485.660156 196.925781 487.984375 C 196.390625 488.800781 196.132812 489.777344 195.570312 490.574219 C 193.011719 494.207031 187.300781 491.621094 182.929688 492.421875 C 180.289062 492.902344 178.113281 494.710938 176.070312 496.453125 C 167.390625 503.84375 158.714844 511.238281 150.039062 518.628906 C 153.21875 514.460938 156.507812 510.105469 160.101562 505.199219 C 163.746094 500.230469 167.449219 495.199219 172.28125 491.378906 " fill-opacity="1" fill-rule="nonzero"/><path fill="#b2e4fb" d="M 325.46875 513.609375 C 321.5 522.097656 316.710938 529.460938 318.207031 538.71875 C 313.332031 516.390625 308.164062 493.378906 294.898438 474.773438 C 289.363281 467.015625 282.359375 459.871094 279.410156 450.894531 C 285.019531 457.832031 296.328125 459.164062 303.78125 463.207031 C 309.769531 466.457031 315.289062 470.773438 321.207031 474.175781 C 326.054688 483.289062 332.523438 491.925781 330.554688 501.707031 C 329.703125 505.949219 327.304688 509.6875 325.46875 513.609375 " fill-opacity="1" fill-rule="nonzero"/><g clip-path="url(#9dfb105d40)"><path fill="#f5f7fe" d="M 89.710938 418.300781 C 81.539062 418.621094 73.613281 415.699219 66.089844 412.488281 C 59.460938 409.660156 52.675781 406.289062 47.132812 401.761719 C 48.09375 396.734375 49.042969 391.550781 50.082031 387.324219 C 64.265625 380.726562 78.089844 373.34375 91.460938 365.222656 C 93.773438 363.816406 97.144531 364.363281 97.570312 361.691406 C 97.875 362.023438 98.1875 362.394531 98.496094 362.734375 C 100.1875 369.390625 97.683594 379.117188 97 384.8125 C 96.597656 388.183594 92.671875 418.1875 89.710938 418.300781 " fill-opacity="1" fill-rule="nonzero"/></g><g clip-path="url(#521b20e88b)"><path fill="#b2e4fb" d="M 94.460938 431.867188 C 99.324219 407.496094 97.5 387.855469 95.84375 363.695312 C 96.722656 363.324219 97.394531 362.78125 97.570312 361.691406 C 105.636719 370.519531 114.988281 382.980469 120.71875 393.472656 C 121.261719 392.800781 121.808594 392.109375 122.359375 391.410156 C 122.640625 392.734375 122.800781 393.980469 122.8125 395.113281 C 122.910156 404.167969 116.796875 413.101562 112.152344 420.433594 C 110.8125 422.542969 93.78125 435.265625 94.460938 431.867188 " fill-opacity="1" fill-rule="nonzero"/></g><g clip-path="url(#31021842ac)"><path fill="#f5f7fe" d="M 157.226562 448.671875 C 154.835938 447.125 142.246094 436.996094 140.785156 434.550781 C 139.667969 432.691406 139.03125 430.589844 138.40625 428.511719 C 136.589844 422.492188 134.792969 415.894531 137.183594 410.078125 C 138.453125 406.988281 140.789062 404.472656 142.535156 401.625 C 148.996094 391.078125 146.710938 377.601562 144.214844 365.488281 C 140.921875 373.84375 134.226562 380.015625 126.746094 385.253906 C 127.863281 383.441406 128.835938 381.570312 129.53125 379.636719 C 137.351562 357.867188 145.148438 337.742188 151.730469 315.5625 C 153.9375 316.367188 155.144531 318.121094 156.003906 320.203125 C 156.304688 321.445312 156.601562 322.6875 156.898438 323.929688 C 159.535156 334.90625 162.203125 345.972656 167.085938 356.148438 C 167.125 356.226562 167.164062 356.304688 167.203125 356.382812 C 170.078125 364.039062 173.5625 371.21875 178.257812 377.335938 C 180.191406 381.703125 181.628906 386.207031 182.011719 391.003906 C 182.46875 396.734375 181.351562 402.488281 181.625 408.234375 C 181.980469 415.820312 184.726562 423.058594 186.453125 430.453125 C 190.753906 448.917969 166.589844 454.746094 157.226562 448.671875 " fill-opacity="1" fill-rule="nonzero"/><path fill="#f5f7fe" d="M 157.226562 448.671875 C 154.835938 447.125 142.246094 436.996094 140.785156 434.550781 C 139.667969 432.691406 139.03125 430.589844 138.40625 428.511719 C 136.589844 422.492188 134.792969 415.894531 137.183594 410.078125 C 138.453125 406.988281 140.789062 404.472656 142.535156 401.625 C 148.996094 391.078125 146.710938 377.601562 144.214844 365.488281 C 140.921875 373.84375 134.226562 380.015625 126.746094 385.253906 C 127.863281 383.441406 128.835938 381.570312 129.53125 379.636719 C 137.351562 357.867188 145.148438 337.742188 151.730469 315.5625 C 153.9375 316.367188 155.144531 318.121094 156.003906 320.203125 C 156.304688 321.445312 156.601562 322.6875 156.898438 323.929688 C 159.535156 334.90625 162.203125 345.972656 167.085938 356.148438 C 167.125 356.226562 167.164062 356.304688 167.203125 356.382812 C 170.078125 364.039062 173.5625 371.21875 178.257812 377.335938 C 180.191406 381.703125 181.628906 386.207031 182.011719 391.003906 C 182.46875 396.734375 181.351562 402.488281 181.625 408.234375 C 181.980469 415.820312 184.726562 423.058594 186.453125 430.453125 C 190.753906 448.917969 166.589844 454.746094 157.226562 448.671875 " fill-opacity="1" fill-rule="nonzero"/></g><g clip-path="url(#6d21bd8baa)"><path fill="#b2e4fb" d="M 43.058594 491.105469 C 53.488281 477.433594 66.554688 466.054688 78.925781 454.113281 C 75.863281 457.976562 76.824219 463.519531 76.097656 468.398438 C 75.203125 474.402344 71.617188 479.613281 68.132812 484.582031 C 63.679688 490.929688 59.226562 497.28125 54.773438 503.628906 C 53.738281 505.101562 52.6875 506.613281 52.242188 508.355469 C 51.886719 509.734375 51.929688 511.183594 51.980469 512.609375 C 52.191406 518.6875 52.398438 524.765625 52.605469 530.84375 C 63.25 537.183594 76.394531 537.019531 88.777344 536.664062 C 99.597656 536.351562 110.519531 536.03125 121.011719 533.378906 C 128.777344 531.414062 136.132812 528.078125 142.398438 523.058594 C 151.179688 507.015625 159.484375 490.402344 166.863281 474.238281 C 158.929688 462.472656 150.996094 450.707031 143.0625 438.941406 C 138.921875 432.796875 132.132812 425.640625 133.941406 418.453125 C 137.332031 424.277344 142.777344 434.359375 148.113281 438.472656 C 152.34375 441.734375 156.820312 443.566406 161.054688 446.828125 C 168.964844 446.972656 175.808594 442.410156 183.476562 440.472656 C 175.386719 436.109375 172.335938 426.234375 170.015625 417.335938 C 166.371094 403.351562 162.730469 389.363281 159.085938 375.378906 C 157.65625 369.886719 156.269531 363.84375 158.726562 358.730469 C 159.492188 357.128906 160.628906 355.660156 160.929688 353.910156 C 161.257812 351.980469 160.519531 350.050781 159.824219 348.222656 C 156.019531 338.183594 153.148438 327.789062 151.261719 317.21875 C 151.941406 316.953125 152.636719 316.699219 153.347656 316.460938 C 155.234375 317.890625 156.136719 320.253906 156.898438 322.75 C 164.640625 348.066406 169.695312 377.386719 192.914062 390.085938 C 197.316406 392.492188 201.707031 394.851562 206.097656 397.195312 C 206.347656 403.480469 207.109375 409.746094 208.324219 415.917969 C 221.246094 436.527344 240.976562 456.742188 258.445312 473.601562 C 265.046875 479.972656 271.878906 486.496094 280.390625 489.921875 C 284.023438 507.386719 300.375 522.28125 303.402344 539.304688 L 284.199219 539.304688 C 284.820312 534.960938 285.011719 530.558594 284.703125 526.179688 C 266.863281 524.113281 251.667969 514.070312 241.929688 506.179688 C 238.527344 503.425781 234.707031 501.058594 232.164062 497.496094 C 229.964844 494.417969 228.710938 490.78125 227.511719 487.195312 C 222.746094 472.941406 218.621094 458.589844 214.902344 444.109375 C 203.015625 450.878906 191.679688 463.191406 185.605469 475.152344 C 183.734375 478.839844 182.148438 482.777344 179.304688 485.78125 C 177.242188 487.957031 174.632812 489.519531 172.28125 491.378906 C 167.449219 495.199219 163.746094 500.230469 160.101562 505.199219 C 155.773438 511.105469 151.890625 516.21875 148.101562 521.164062 C 148.074219 521.433594 148.03125 521.738281 147.9375 522.113281 C 147.574219 523.589844 145.855469 524.996094 144.085938 526.386719 C 142.410156 528.570312 140.71875 530.777344 139.003906 533.023438 C 138.503906 535.03125 138.417969 537.179688 138.214844 539.304688 L 25.066406 539.304688 C 25.054688 539.015625 25.042969 538.726562 25.039062 538.4375 C 24.867188 521.238281 32.625 504.773438 43.058594 491.105469 " fill-opacity="1" fill-rule="nonzero"/></g><g clip-path="url(#11d1ba64e6)"><path fill="#8acfea" d="M 83.445312 453.871094 C 81.03125 457.460938 77.597656 460.222656 74.695312 463.429688 C 65.171875 473.960938 61.683594 488.839844 52.386719 499.570312 C 49.367188 503.054688 45.742188 506.09375 43.503906 510.125 C 41.507812 513.710938 40.757812 517.832031 40.03125 521.871094 C 38.988281 527.683594 37.945312 533.492188 36.902344 539.304688 L 12.175781 539.304688 C 14.417969 523.910156 16.519531 505.894531 15.808594 491.441406 C 18.871094 486.160156 24.363281 482.871094 29.289062 479.273438 C 52.53125 462.308594 64.609375 433.546875 89.65625 419.394531 C 93.300781 408.925781 95.835938 398.078125 97.285156 387.085938 C 97.398438 389.386719 97.496094 391.449219 97.488281 393.019531 C 97.441406 405.429688 96.851562 416.894531 96.804688 429.304688 C 88.976562 434.605469 88.722656 446.027344 83.445312 453.871094 " fill-opacity="1" fill-rule="nonzero"/></g><path fill="#b2e4fb" d="M 270.191406 462.757812 C 269.503906 465.769531 266.804688 470.820312 267.054688 473.761719 C 265.648438 457.144531 264.203125 440.378906 259.902344 424.3125 C 263.957031 426.234375 268.027344 428.144531 272.136719 430.035156 C 272.339844 430.371094 272.523438 430.710938 272.699219 431.054688 C 273.253906 437.824219 272.945312 444.78125 272.144531 451.488281 C 271.691406 455.273438 271.039062 459.039062 270.191406 462.757812 " fill-opacity="1" fill-rule="nonzero"/><path fill="#8acfea" d="M 287.324219 456.628906 C 292.730469 459.152344 299.035156 460.632812 303.78125 463.207031 C 308.53125 465.785156 312.992188 469.015625 317.585938 471.949219 C 317.917969 473.429688 318.210938 474.832031 318.488281 476.0625 C 320.3125 484.097656 320.84375 492.5625 318.828125 500.554688 C 315.4375 486.625 307.3125 473.890625 296.105469 464.953125 C 292.9375 462.425781 289.40625 460.035156 287.324219 456.628906 " fill-opacity="1" fill-rule="nonzero"/><g clip-path="url(#6de1a7188a)"><path fill="#8acfea" d="M 167.355469 371.277344 C 166.632812 366.417969 163.339844 356.199219 165.058594 350.289062 C 170.515625 366.777344 177.933594 381.894531 192.914062 390.085938 C 194.429688 390.914062 195.941406 391.714844 197.453125 392.53125 C 197.375 392.964844 197.214844 393.371094 196.902344 393.710938 C 196.054688 394.640625 194.625 394.632812 193.398438 394.917969 C 188.578125 396.042969 186.667969 402.015625 186.996094 406.957031 C 187.320312 411.898438 188.984375 416.910156 187.753906 421.707031 C 185.050781 409.871094 175.804688 400.625 171.417969 389.304688 C 169.1875 383.550781 168.265625 377.386719 167.355469 371.277344 " fill-opacity="1" fill-rule="nonzero"/></g><g clip-path="url(#be2be7730a)"><path fill="#b2e4fb" d="M 267.078125 537.394531 C 266.089844 538.035156 265.09375 538.667969 264.097656 539.304688 L 202.519531 539.304688 C 212.605469 538.480469 222.933594 536.570312 229.058594 528.875 C 226.058594 521.019531 220.105469 515.886719 216.367188 508.828125 C 212.042969 500.664062 227.386719 503.921875 231.980469 505.453125 C 237.582031 507.316406 242.617188 510.566406 247.320312 514.132812 C 254.898438 519.875 261.792969 526.523438 267.808594 533.886719 C 268.199219 534.363281 268.605469 534.90625 268.585938 535.523438 C 268.554688 536.359375 267.777344 536.941406 267.078125 537.394531 " fill-opacity="1" fill-rule="nonzero"/></g><g clip-path="url(#9f69b8dd4c)"><path fill="#8acfea" d="M 247.410156 539.304688 C 241.183594 533.511719 234.308594 528.332031 227.878906 522.738281 C 218.121094 514.246094 203.183594 503.207031 204.59375 490.34375 C 205.773438 479.558594 206.992188 468.625 210.9375 458.519531 C 213.320312 452.410156 216.75 446.042969 215.203125 439.667969 C 222.027344 457.644531 230.480469 475.6875 240.945312 491.816406 C 249.734375 505.371094 261.480469 517.679688 276.542969 523.5 C 278.148438 527.042969 288.710938 524.328125 290.71875 527.664062 C 291.222656 528.503906 291.285156 529.527344 291.332031 530.507812 C 291.480469 533.4375 291.625 536.371094 291.773438 539.304688 L 247.410156 539.304688 " fill-opacity="1" fill-rule="nonzero"/></g><path fill="#78b3d6" d="M 288.097656 529.773438 C 284.574219 530.777344 280.984375 531.488281 277.378906 532.125 C 275.425781 532.472656 272.273438 533.496094 270.304688 532.5 C 268.5 531.585938 267.738281 529.359375 266.863281 527.699219 C 265.578125 525.265625 264.300781 522.828125 263.023438 520.386719 C 261.53125 518.773438 260.003906 517.136719 258.988281 515.292969 C 258.792969 514.941406 258.839844 514.566406 259.019531 514.269531 C 258.183594 513.601562 257.367188 512.910156 256.613281 512.148438 C 256.21875 511.75 256.480469 511.175781 256.9375 511.046875 C 262.722656 516.320312 269.238281 520.679688 276.542969 523.5 C 277.359375 525.304688 280.5 525.484375 283.648438 525.671875 C 284.65625 525.980469 285.675781 526.265625 286.703125 526.523438 C 287.113281 526.625 287.386719 526.84375 287.574219 527.105469 C 289.136719 527.054688 289.765625 529.300781 288.097656 529.773438 " fill-opacity="1" fill-rule="nonzero"/><path fill="#8acfea" d="M 183.296875 440.847656 C 183.269531 441.019531 183.25 441.1875 183.199219 441.355469 C 185.042969 444.675781 181.277344 452.042969 180.160156 455.191406 C 177.621094 462.359375 174.191406 469.113281 170.113281 475.523438 C 169.28125 476.839844 167.503906 476.203125 167.351562 474.773438 C 167.234375 473.675781 167.105469 472.570312 166.972656 471.46875 C 166.878906 471.253906 166.816406 471.011719 166.84375 470.707031 C 166.847656 470.644531 166.851562 470.585938 166.855469 470.527344 C 166.539062 467.996094 166.171875 465.453125 165.742188 462.914062 C 164.785156 459.804688 164.160156 456.710938 163.847656 453.570312 C 163.527344 452.25 163.773438 448.054688 163.414062 446.757812 C 170.417969 444.269531 176.664062 444.265625 183.296875 440.847656 " fill-opacity="1" fill-rule="nonzero"/><g clip-path="url(#42f10ec299)"><path fill="#78b3d6" d="M 54.011719 496.574219 C 52.597656 498.382812 51.265625 500.253906 49.996094 502.167969 C 47.613281 504.667969 45.171875 507.121094 43.503906 510.125 C 41.507812 513.710938 40.757812 517.832031 40.03125 521.871094 C 39.332031 525.757812 38.636719 529.648438 37.9375 533.535156 C 37.351562 535.457031 36.761719 537.382812 36.171875 539.304688 L 22.066406 539.304688 C 23.386719 536.042969 24.804688 532.84375 26.113281 529.738281 C 26.878906 527.910156 27.582031 526.066406 28.257812 524.21875 C 30.074219 517.128906 32.113281 510.125 34.851562 503.566406 C 35.109375 502.949219 35.40625 502.386719 35.691406 501.800781 C 36.273438 500.113281 36.875 498.429688 37.511719 496.757812 C 37.449219 496.253906 37.5 495.046875 38.027344 495.339844 C 41.238281 497.101562 52.300781 487.992188 65.914062 474.796875 C 66.234375 474.488281 66.667969 474.511719 67.039062 474.570312 C 63.335938 481.265625 60.273438 488.429688 56.03125 494.75 C 55.371094 495.371094 54.703125 495.984375 54.011719 496.574219 " fill-opacity="1" fill-rule="nonzero"/></g><path fill="#b2e4fb" d="M 81.382812 480.636719 C 82.835938 476.753906 84.851562 473.089844 86.097656 469.132812 C 87.773438 463.800781 87.992188 458.132812 89.011719 452.636719 C 90.03125 447.140625 92.066406 441.5 96.417969 437.992188 C 103.609375 445.984375 112.929688 452.035156 123.148438 455.351562 C 128.566406 457.113281 134.210938 458.113281 139.613281 459.917969 C 143.707031 461.28125 154.996094 464.363281 156.148438 469.253906 C 156.828125 472.136719 154.660156 473.515625 151.691406 474.09375 C 151.539062 474.371094 151.265625 474.585938 150.839844 474.65625 C 141.316406 476.21875 138.316406 485.929688 134.449219 493.542969 C 133.863281 494.695312 133.277344 495.847656 132.691406 497.003906 C 129.953125 502.914062 127.054688 508.746094 123.847656 514.4375 C 123.015625 515.914062 120.835938 514.609375 121.589844 513.117188 C 122.523438 511.285156 123.441406 509.441406 124.367188 507.605469 C 129.644531 496.800781 140.070312 474.375 137.695312 473.953125 C 137.085938 473.84375 136.828125 473.308594 136.832031 472.769531 C 129.714844 470.363281 122.761719 466.054688 115.859375 468.480469 C 112.105469 469.800781 109.308594 472.90625 106.679688 475.894531 C 96.953125 486.960938 87.222656 498.023438 77.492188 509.089844 C 77.726562 499.472656 78 489.640625 81.382812 480.636719 " fill-opacity="1" fill-rule="nonzero"/><path fill="#8acfea" d="M 116.199219 462.675781 C 111.613281 461.765625 106.628906 461.714844 102.507812 463.929688 C 98.117188 466.296875 95.394531 470.820312 92.882812 475.132812 C 92.703125 469.601562 92.523438 464.066406 92.34375 458.535156 C 92.164062 453.101562 92.042969 447.398438 94.527344 442.566406 C 95.34375 446.59375 97.769531 450.269531 101.144531 452.609375 C 104.105469 454.65625 107.644531 455.648438 111.050781 456.816406 C 116.667969 458.742188 122.722656 461.09375 127.5625 464.550781 C 124.839844 466.300781 119.234375 463.28125 116.199219 462.675781 " fill-opacity="1" fill-rule="nonzero"/><path fill="#f5f7fe" d="M 96.636719 453.4375 C 92.382812 448.957031 92.210938 440.738281 97.011719 436.644531 C 98.476562 435.390625 100.238281 434.542969 101.976562 433.710938 C 105.8125 431.875 109.644531 430.042969 113.476562 428.207031 C 117.679688 426.863281 121.933594 425.691406 126.160156 424.550781 C 129.394531 431.464844 133.195312 438.050781 137.863281 443.929688 C 140.847656 449.820312 144.777344 455.226562 149.546875 459.796875 C 153.464844 463.550781 159.085938 467.363281 161.1875 472.605469 C 156.457031 472.765625 151.722656 472.769531 146.992188 472.800781 C 143.582031 471.703125 140.269531 470.351562 137.679688 469.273438 C 124.761719 462.277344 110.113281 459.183594 96.636719 453.4375 " fill-opacity="1" fill-rule="nonzero"/></svg>