<svg xmlns="http://www.w3.org/2000/svg" xmlns:xlink="http://www.w3.org/1999/xlink" width="1280" zoomAndPan="magnify" viewBox="0 0 960 540.000001" height="720" preserveAspectRatio="xMidYMid meet" version="1.0"><defs><filter x="0%" y="0%" width="100%" height="100%" id="dca39369a7"><feColorMatrix values="0 0 0 0 1 0 0 0 0 1 0 0 0 0 1 0 0 0 1 0" color-interpolation-filters="sRGB"/></filter><clipPath id="f4cc52131e"><path d="M 0.886719 0 L 959.113281 0 L 959.113281 539 L 0.886719 539 Z M 0.886719 0 " clip-rule="nonzero"/></clipPath><clipPath id="93f318036c"><path d="M 0.886719 0 L 402 0 L 402 373 L 0.886719 373 Z M 0.886719 0 " clip-rule="nonzero"/></clipPath><mask id="997f37fa39"><g filter="url(#dca39369a7)"><rect x="-96" width="1152" fill="#000000" y="-54" height="648.000001" fill-opacity="0.39"/></g></mask><clipPath id="21ac271eab"><path d="M 328 0 L 348 0 L 348 16 L 328 16 Z M 328 0 " clip-rule="nonzero"/></clipPath><clipPath id="33595ea4a7"><path d="M 361 129 L 369.421875 129 L 369.421875 138 L 361 138 Z M 361 129 " clip-rule="nonzero"/></clipPath><clipPath id="3c74814091"><path d="M 340 150 L 344 150 L 344 153.113281 L 340 153.113281 Z M 340 150 " clip-rule="nonzero"/></clipPath><clipPath id="bcabf4537a"><path d="M 111 356 L 128 356 L 128 371.84375 L 111 371.84375 Z M 111 356 " clip-rule="nonzero"/></clipPath><clipPath id="4ca824cab2"><path d="M 0.886719 258 L 6 258 L 6 281 L 0.886719 281 Z M 0.886719 258 " clip-rule="nonzero"/></clipPath><clipPath id="a370410b23"><path d="M 307 249 L 310.765625 249 L 310.765625 253 L 307 253 Z M 307 249 " clip-rule="nonzero"/></clipPath><clipPath id="4b83cae563"><path d="M 273 240 L 401.1875 240 L 401.1875 371 L 273 371 Z M 273 240 " clip-rule="nonzero"/></clipPath><mask id="195b669db1"><g filter="url(#dca39369a7)"><rect x="-211.2" width="1382.4" fill="#000000" y="-118.8" height="777.600001" fill-opacity="0.39"/></g></mask><clipPath id="722fe820e7"><path d="M 68 3 L 79 3 L 79 15 L 68 15 Z M 68 3 " clip-rule="nonzero"/></clipPath><clipPath id="bdeb2cebbf"><path d="M 40.132812 141.867188 L -24.558594 41.675781 L 71.335938 -20.242188 L 136.03125 79.945312 Z M 40.132812 141.867188 " clip-rule="nonzero"/></clipPath><clipPath id="bb22b2c621"><path d="M -75.921875 216.804688 L -312.050781 -148.886719 L -100.222656 -285.667969 L 135.910156 80.023438 Z M -75.921875 216.804688 " clip-rule="nonzero"/></clipPath><clipPath id="3e9fac084d"><path d="M 12 55 L 27 55 L 27 71 L 12 71 Z M 12 55 " clip-rule="nonzero"/></clipPath><clipPath id="df06dad139"><path d="M 40.132812 141.867188 L -24.558594 41.675781 L 71.335938 -20.242188 L 136.03125 79.945312 Z M 40.132812 141.867188 " clip-rule="nonzero"/></clipPath><clipPath id="e8ac831a02"><path d="M -75.921875 216.804688 L -312.050781 -148.886719 L -100.222656 -285.667969 L 135.910156 80.023438 Z M -75.921875 216.804688 " clip-rule="nonzero"/></clipPath><clipPath id="c578aa4f59"><path d="M 96 74 L 104 74 L 104 82 L 96 82 Z M 96 74 " clip-rule="nonzero"/></clipPath><clipPath id="23cea49616"><path d="M 40.132812 141.867188 L -24.558594 41.675781 L 71.335938 -20.242188 L 136.03125 79.945312 Z M 40.132812 141.867188 " clip-rule="nonzero"/></clipPath><clipPath id="d7069168b7"><path d="M -75.921875 216.804688 L -312.050781 -148.886719 L -100.222656 -285.667969 L 135.910156 80.023438 Z M -75.921875 216.804688 " clip-rule="nonzero"/></clipPath><clipPath id="f717e20be4"><path d="M 70 34 L 79 34 L 79 43 L 70 43 Z M 70 34 " clip-rule="nonzero"/></clipPath><clipPath id="58bda179b6"><path d="M 40.132812 141.867188 L -24.558594 41.675781 L 71.335938 -20.242188 L 136.03125 79.945312 Z M 40.132812 141.867188 " clip-rule="nonzero"/></clipPath><clipPath id="ff88732ca0"><path d="M -75.921875 216.804688 L -312.050781 -148.886719 L -100.222656 -285.667969 L 135.910156 80.023438 Z M -75.921875 216.804688 " clip-rule="nonzero"/></clipPath><clipPath id="65101aaccf"><path d="M 71 111 L 77 111 L 77 117 L 71 117 Z M 71 111 " clip-rule="nonzero"/></clipPath><clipPath id="5238247304"><path d="M 40.132812 141.867188 L -24.558594 41.675781 L 71.335938 -20.242188 L 136.03125 79.945312 Z M 40.132812 141.867188 " clip-rule="nonzero"/></clipPath><clipPath id="625b9d4f03"><path d="M -75.921875 216.804688 L -312.050781 -148.886719 L -100.222656 -285.667969 L 135.910156 80.023438 Z M -75.921875 216.804688 " clip-rule="nonzero"/></clipPath><clipPath id="a3a460212e"><rect x="0" width="129" y="0" height="131"/></clipPath><clipPath id="00de6e4f39"><rect x="0" width="402" y="0" height="373"/></clipPath><mask id="8c3e654ff5"><g filter="url(#dca39369a7)"><rect x="-96" width="1152" fill="#000000" y="-54" height="648.000001" fill-opacity="0.39"/></g></mask><clipPath id="ffec00e75d"><path d="M 12 162 L 29 162 L 29 178 L 12 178 Z M 12 162 " clip-rule="nonzero"/></clipPath><clipPath id="16f45e609e"><path d="M 0.953125 359.042969 L 28.003906 -71.308594 L 277.546875 -55.625 L 250.5 374.730469 Z M 0.953125 359.042969 " clip-rule="nonzero"/></clipPath><clipPath id="c1639f7e9f"><path d="M 0.953125 359.042969 L 28.003906 -71.308594 L 277.546875 -55.625 L 250.5 374.730469 Z M 0.953125 359.042969 " clip-rule="nonzero"/></clipPath><clipPath id="f2660353ed"><path d="M 236 275 L 249 275 L 249 288 L 236 288 Z M 236 275 " clip-rule="nonzero"/></clipPath><clipPath id="1e048ffb98"><path d="M 0.953125 359.042969 L 28.003906 -71.308594 L 277.546875 -55.625 L 250.5 374.730469 Z M 0.953125 359.042969 " clip-rule="nonzero"/></clipPath><clipPath id="59ff37b743"><path d="M 0.953125 359.042969 L 28.003906 -71.308594 L 277.546875 -55.625 L 250.5 374.730469 Z M 0.953125 359.042969 " clip-rule="nonzero"/></clipPath><clipPath id="0af1122a98"><path d="M 36 238 L 42 238 L 42 244 L 36 244 Z M 36 238 " clip-rule="nonzero"/></clipPath><clipPath id="402e014d46"><path d="M 0.953125 359.042969 L 28.003906 -71.308594 L 277.546875 -55.625 L 250.5 374.730469 Z M 0.953125 359.042969 " clip-rule="nonzero"/></clipPath><clipPath id="dad65bf420"><path d="M 0.953125 359.042969 L 28.003906 -71.308594 L 277.546875 -55.625 L 250.5 374.730469 Z M 0.953125 359.042969 " clip-rule="nonzero"/></clipPath><clipPath id="fbbc683096"><path d="M 138 148 L 148 148 L 148 158 L 138 158 Z M 138 148 " clip-rule="nonzero"/></clipPath><clipPath id="987f47bc3b"><path d="M 0.953125 359.042969 L 28.003906 -71.308594 L 277.546875 -55.625 L 250.5 374.730469 Z M 0.953125 359.042969 " clip-rule="nonzero"/></clipPath><clipPath id="bbce7c140a"><path d="M 0.953125 359.042969 L 28.003906 -71.308594 L 277.546875 -55.625 L 250.5 374.730469 Z M 0.953125 359.042969 " clip-rule="nonzero"/></clipPath><clipPath id="6fd927741a"><path d="M 102 98 L 112 98 L 112 108 L 102 108 Z M 102 98 " clip-rule="nonzero"/></clipPath><clipPath id="ad794a0c58"><path d="M 0.953125 359.042969 L 28.003906 -71.308594 L 277.546875 -55.625 L 250.5 374.730469 Z M 0.953125 359.042969 " clip-rule="nonzero"/></clipPath><clipPath id="2696fd7a1a"><path d="M 0.953125 359.042969 L 28.003906 -71.308594 L 277.546875 -55.625 L 250.5 374.730469 Z M 0.953125 359.042969 " clip-rule="nonzero"/></clipPath><clipPath id="cb930b358f"><path d="M 159 284 L 177 284 L 177 302 L 159 302 Z M 159 284 " clip-rule="nonzero"/></clipPath><clipPath id="618899d487"><path d="M 0.953125 359.042969 L 28.003906 -71.308594 L 277.546875 -55.625 L 250.5 374.730469 Z M 0.953125 359.042969 " clip-rule="nonzero"/></clipPath><clipPath id="ee39b17ee9"><path d="M 0.953125 359.042969 L 28.003906 -71.308594 L 277.546875 -55.625 L 250.5 374.730469 Z M 0.953125 359.042969 " clip-rule="nonzero"/></clipPath><clipPath id="04fb67f9e4"><path d="M 218 347 L 228 347 L 228 357 L 218 357 Z M 218 347 " clip-rule="nonzero"/></clipPath><clipPath id="eae18717a7"><path d="M 0.953125 359.042969 L 28.003906 -71.308594 L 277.546875 -55.625 L 250.5 374.730469 Z M 0.953125 359.042969 " clip-rule="nonzero"/></clipPath><clipPath id="689b6d1813"><path d="M 0.953125 359.042969 L 28.003906 -71.308594 L 277.546875 -55.625 L 250.5 374.730469 Z M 0.953125 359.042969 " clip-rule="nonzero"/></clipPath><clipPath id="c4b4bddb22"><path d="M 148 29 L 158 29 L 158 39 L 148 39 Z M 148 29 " clip-rule="nonzero"/></clipPath><clipPath id="fcc0c6165d"><path d="M 0.953125 359.042969 L 28.003906 -71.308594 L 277.546875 -55.625 L 250.5 374.730469 Z M 0.953125 359.042969 " clip-rule="nonzero"/></clipPath><clipPath id="06c9abecbb"><path d="M 0.953125 359.042969 L 28.003906 -71.308594 L 277.546875 -55.625 L 250.5 374.730469 Z M 0.953125 359.042969 " clip-rule="nonzero"/></clipPath><clipPath id="27cdd90c6e"><path d="M 221 300 L 231 300 L 231 310 L 221 310 Z M 221 300 " clip-rule="nonzero"/></clipPath><clipPath id="29be9bf1e7"><path d="M 0.953125 359.042969 L 28.003906 -71.308594 L 277.546875 -55.625 L 250.5 374.730469 Z M 0.953125 359.042969 " clip-rule="nonzero"/></clipPath><clipPath id="5682a3405f"><path d="M 0.953125 359.042969 L 28.003906 -71.308594 L 277.546875 -55.625 L 250.5 374.730469 Z M 0.953125 359.042969 " clip-rule="nonzero"/></clipPath><clipPath id="e993fab89e"><path d="M 76 168 L 89 168 L 89 181 L 76 181 Z M 76 168 " clip-rule="nonzero"/></clipPath><clipPath id="4a1425fdc7"><path d="M 0.953125 359.042969 L 28.003906 -71.308594 L 277.546875 -55.625 L 250.5 374.730469 Z M 0.953125 359.042969 " clip-rule="nonzero"/></clipPath><clipPath id="65258fcce9"><path d="M 0.953125 359.042969 L 28.003906 -71.308594 L 277.546875 -55.625 L 250.5 374.730469 Z M 0.953125 359.042969 " clip-rule="nonzero"/></clipPath><clipPath id="a8b789366e"><path d="M 256 0 L 269 0 L 269 7 L 256 7 Z M 256 0 " clip-rule="nonzero"/></clipPath><clipPath id="761dd37a91"><path d="M 0.953125 359.042969 L 28.003906 -71.308594 L 277.546875 -55.625 L 250.5 374.730469 Z M 0.953125 359.042969 " clip-rule="nonzero"/></clipPath><clipPath id="377096261d"><path d="M 0.953125 359.042969 L 28.003906 -71.308594 L 277.546875 -55.625 L 250.5 374.730469 Z M 0.953125 359.042969 " clip-rule="nonzero"/></clipPath><clipPath id="4daf17fe3e"><path d="M 159 71 L 172 71 L 172 84 L 159 84 Z M 159 71 " clip-rule="nonzero"/></clipPath><clipPath id="f39e787c4a"><path d="M 0.953125 359.042969 L 28.003906 -71.308594 L 277.546875 -55.625 L 250.5 374.730469 Z M 0.953125 359.042969 " clip-rule="nonzero"/></clipPath><clipPath id="972f8c7d8a"><path d="M 0.953125 359.042969 L 28.003906 -71.308594 L 277.546875 -55.625 L 250.5 374.730469 Z M 0.953125 359.042969 " clip-rule="nonzero"/></clipPath><clipPath id="bed33aae39"><path d="M 111 42 L 133 42 L 133 64 L 111 64 Z M 111 42 " clip-rule="nonzero"/></clipPath><clipPath id="8616a0316c"><path d="M 0.953125 359.042969 L 28.003906 -71.308594 L 277.546875 -55.625 L 250.5 374.730469 Z M 0.953125 359.042969 " clip-rule="nonzero"/></clipPath><clipPath id="1e87ccec03"><path d="M 0.953125 359.042969 L 28.003906 -71.308594 L 277.546875 -55.625 L 250.5 374.730469 Z M 0.953125 359.042969 " clip-rule="nonzero"/></clipPath><clipPath id="bc1ed4e2d9"><path d="M 24 47 L 30 47 L 30 53 L 24 53 Z M 24 47 " clip-rule="nonzero"/></clipPath><clipPath id="6a35d11082"><path d="M 0.953125 359.042969 L 28.003906 -71.308594 L 277.546875 -55.625 L 250.5 374.730469 Z M 0.953125 359.042969 " clip-rule="nonzero"/></clipPath><clipPath id="148d4ce5c2"><path d="M 0.953125 359.042969 L 28.003906 -71.308594 L 277.546875 -55.625 L 250.5 374.730469 Z M 0.953125 359.042969 " clip-rule="nonzero"/></clipPath><clipPath id="4cef7ad209"><path d="M 39 84 L 43 84 L 43 88 L 39 88 Z M 39 84 " clip-rule="nonzero"/></clipPath><clipPath id="e11f424bce"><path d="M 0.953125 359.042969 L 28.003906 -71.308594 L 277.546875 -55.625 L 250.5 374.730469 Z M 0.953125 359.042969 " clip-rule="nonzero"/></clipPath><clipPath id="da267d4552"><path d="M 0.953125 359.042969 L 28.003906 -71.308594 L 277.546875 -55.625 L 250.5 374.730469 Z M 0.953125 359.042969 " clip-rule="nonzero"/></clipPath><clipPath id="58d407c533"><path d="M 47 1 L 54 1 L 54 8 L 47 8 Z M 47 1 " clip-rule="nonzero"/></clipPath><clipPath id="4699fb3f09"><path d="M 0.953125 359.042969 L 28.003906 -71.308594 L 277.546875 -55.625 L 250.5 374.730469 Z M 0.953125 359.042969 " clip-rule="nonzero"/></clipPath><clipPath id="d31d756755"><path d="M 0.953125 359.042969 L 28.003906 -71.308594 L 277.546875 -55.625 L 250.5 374.730469 Z M 0.953125 359.042969 " clip-rule="nonzero"/></clipPath><clipPath id="55bafe5703"><path d="M 178 363 L 183 363 L 183 368 L 178 368 Z M 178 363 " clip-rule="nonzero"/></clipPath><clipPath id="ef4341172b"><path d="M 0.953125 359.042969 L 28.003906 -71.308594 L 277.546875 -55.625 L 250.5 374.730469 Z M 0.953125 359.042969 " clip-rule="nonzero"/></clipPath><clipPath id="70331f8bb1"><path d="M 0.953125 359.042969 L 28.003906 -71.308594 L 277.546875 -55.625 L 250.5 374.730469 Z M 0.953125 359.042969 " clip-rule="nonzero"/></clipPath><clipPath id="9f46c12ad5"><path d="M 161 175 L 166 175 L 166 181 L 161 181 Z M 161 175 " clip-rule="nonzero"/></clipPath><clipPath id="95821197a9"><path d="M 0.953125 359.042969 L 28.003906 -71.308594 L 277.546875 -55.625 L 250.5 374.730469 Z M 0.953125 359.042969 " clip-rule="nonzero"/></clipPath><clipPath id="21c5bd530a"><path d="M 0.953125 359.042969 L 28.003906 -71.308594 L 277.546875 -55.625 L 250.5 374.730469 Z M 0.953125 359.042969 " clip-rule="nonzero"/></clipPath><clipPath id="788ccf8746"><path d="M 118 363 L 122 363 L 122 367 L 118 367 Z M 118 363 " clip-rule="nonzero"/></clipPath><clipPath id="7a6525cf6a"><path d="M 0.953125 359.042969 L 28.003906 -71.308594 L 277.546875 -55.625 L 250.5 374.730469 Z M 0.953125 359.042969 " clip-rule="nonzero"/></clipPath><clipPath id="fb48ab2c8d"><path d="M 0.953125 359.042969 L 28.003906 -71.308594 L 277.546875 -55.625 L 250.5 374.730469 Z M 0.953125 359.042969 " clip-rule="nonzero"/></clipPath><clipPath id="4e90272761"><rect x="0" width="271" y="0" height="375"/></clipPath><mask id="7b751182b4"><g filter="url(#dca39369a7)"><rect x="-96" width="1152" fill="#000000" y="-54" height="648.000001" fill-opacity="0.1521"/></g></mask><clipPath id="5c43de4a28"><path d="M 80 0.65625 L 93 0.65625 L 93 14 L 80 14 Z M 80 0.65625 " clip-rule="nonzero"/></clipPath><clipPath id="37eb192cfb"><path d="M -15.554688 105.097656 L -17.253906 -17.664062 L 101.015625 -19.304688 L 102.714844 103.457031 Z M -15.554688 105.097656 " clip-rule="nonzero"/></clipPath><clipPath id="05e10bef2d"><path d="M -158.332031 107.074219 L -164.570312 -342.796875 L 96.671875 -346.417969 L 102.90625 103.453125 Z M -158.332031 107.074219 " clip-rule="nonzero"/></clipPath><clipPath id="021e70e6a5"><path d="M 1 16 L 19 16 L 19 34 L 1 34 Z M 1 16 " clip-rule="nonzero"/></clipPath><clipPath id="7436cdc2f5"><path d="M -15.554688 105.097656 L -17.253906 -17.664062 L 101.015625 -19.304688 L 102.714844 103.457031 Z M -15.554688 105.097656 " clip-rule="nonzero"/></clipPath><clipPath id="ed76d03ba3"><path d="M -158.332031 107.074219 L -164.570312 -342.796875 L 96.671875 -346.417969 L 102.90625 103.453125 Z M -158.332031 107.074219 " clip-rule="nonzero"/></clipPath><clipPath id="57b49e4673"><path d="M 67 77 L 77 77 L 77 87 L 67 87 Z M 67 77 " clip-rule="nonzero"/></clipPath><clipPath id="7e48cdf105"><path d="M -15.554688 105.097656 L -17.253906 -17.664062 L 101.015625 -19.304688 L 102.714844 103.457031 Z M -15.554688 105.097656 " clip-rule="nonzero"/></clipPath><clipPath id="d51e6f8e65"><path d="M -158.332031 107.074219 L -164.570312 -342.796875 L 96.671875 -346.417969 L 102.90625 103.453125 Z M -158.332031 107.074219 " clip-rule="nonzero"/></clipPath><clipPath id="c9b7f0e1ad"><path d="M 66 28 L 76 28 L 76 38 L 66 38 Z M 66 28 " clip-rule="nonzero"/></clipPath><clipPath id="51e7482c23"><path d="M -15.554688 105.097656 L -17.253906 -17.664062 L 101.015625 -19.304688 L 102.714844 103.457031 Z M -15.554688 105.097656 " clip-rule="nonzero"/></clipPath><clipPath id="e88c439c6a"><path d="M -158.332031 107.074219 L -164.570312 -342.796875 L 96.671875 -346.417969 L 102.90625 103.453125 Z M -158.332031 107.074219 " clip-rule="nonzero"/></clipPath><clipPath id="27c11bf9e4"><path d="M 26 96 L 32 96 L 32 102 L 26 102 Z M 26 96 " clip-rule="nonzero"/></clipPath><clipPath id="ced89403c0"><path d="M -15.554688 105.097656 L -17.253906 -17.664062 L 101.015625 -19.304688 L 102.714844 103.457031 Z M -15.554688 105.097656 " clip-rule="nonzero"/></clipPath><clipPath id="456df23fa8"><path d="M -158.332031 107.074219 L -164.570312 -342.796875 L 96.671875 -346.417969 L 102.90625 103.453125 Z M -158.332031 107.074219 " clip-rule="nonzero"/></clipPath><clipPath id="cac1c28ab6"><rect x="0" width="95" y="0" height="103"/></clipPath><clipPath id="56e54cc380"><path d="M 616 21 L 959.113281 21 L 959.113281 275 L 616 275 Z M 616 21 " clip-rule="nonzero"/></clipPath><mask id="9de5e1804a"><g filter="url(#dca39369a7)"><rect x="-96" width="1152" fill="#000000" y="-54" height="648.000001" fill-opacity="0.39"/></g></mask><clipPath id="37686f3d3f"><path d="M 237 237 L 253 237 L 253 253.105469 L 237 253.105469 Z M 237 237 " clip-rule="nonzero"/></clipPath><clipPath id="a0711ae7fc"><path d="M 336 8 L 343.113281 8 L 343.113281 21 L 336 21 Z M 336 8 " clip-rule="nonzero"/></clipPath><clipPath id="b00f32766d"><path d="M 0.882812 17 L 10 17 L 10 27 L 0.882812 27 Z M 0.882812 17 " clip-rule="nonzero"/></clipPath><clipPath id="a9d27632be"><path d="M 29 0.953125 L 33 0.953125 L 33 4 L 29 4 Z M 29 0.953125 " clip-rule="nonzero"/></clipPath><clipPath id="37f3434fcb"><rect x="0" width="344" y="0" height="254"/></clipPath></defs><g clip-path="url(#f4cc52131e)"><path fill="#ffffff" d="M 0.886719 0 L 959.113281 0 L 959.113281 539 L 0.886719 539 Z M 0.886719 0 " fill-opacity="1" fill-rule="nonzero"/><path fill="#36366b" d="M 0.886719 0 L 959.113281 0 L 959.113281 539 L 0.886719 539 Z M 0.886719 0 " fill-opacity="1" fill-rule="nonzero"/></g><g clip-path="url(#93f318036c)"><g mask="url(#997f37fa39)"><g transform="matrix(1, 0, 0, 1, 0.000000000000000222, 0.000000000000017795)"><g clip-path="url(#00de6e4f39)"><g clip-path="url(#21ac271eab)"><path fill="#ffff00" d="M 337.773438 -2.851562 L 338.789062 4.140625 C 338.835938 4.460938 338.984375 4.757812 339.214844 4.988281 C 339.445312 5.214844 339.738281 5.367188 340.058594 5.417969 L 347.054688 6.425781 L 340.058594 7.445312 C 339.398438 7.53125 338.875 8.050781 338.785156 8.714844 L 337.773438 15.707031 L 336.757812 8.714844 C 336.710938 8.394531 336.5625 8.097656 336.332031 7.867188 C 336.101562 7.640625 335.808594 7.488281 335.488281 7.4375 L 328.492188 6.425781 L 335.488281 5.410156 C 336.148438 5.324219 336.671875 4.804688 336.765625 4.140625 Z M 337.773438 -2.851562 " fill-opacity="1" fill-rule="nonzero"/></g><path fill="#ffff00" d="M 55.648438 134.496094 L 56.257812 138.691406 C 56.285156 138.886719 56.378906 139.066406 56.515625 139.203125 C 56.652344 139.347656 56.828125 139.433594 57.023438 139.457031 L 61.214844 140.066406 L 57.023438 140.675781 C 56.828125 140.703125 56.648438 140.796875 56.507812 140.933594 C 56.367188 141.070312 56.28125 141.246094 56.257812 141.441406 L 55.648438 145.632812 L 55.039062 141.441406 C 55.011719 141.246094 54.917969 141.066406 54.78125 140.925781 C 54.644531 140.785156 54.46875 140.695312 54.273438 140.675781 L 50.078125 140.066406 L 54.273438 139.457031 C 54.46875 139.425781 54.648438 139.335938 54.785156 139.199219 C 54.929688 139.0625 55.015625 138.886719 55.039062 138.691406 Z M 55.648438 134.496094 " fill-opacity="1" fill-rule="nonzero"/><path fill="#ffff00" d="M 168.5 36.496094 L 168.945312 39.578125 C 168.96875 39.714844 169.035156 39.84375 169.128906 39.949219 C 169.234375 40.046875 169.367188 40.109375 169.507812 40.132812 L 172.582031 40.578125 L 169.5 41.023438 C 169.363281 41.050781 169.234375 41.113281 169.128906 41.210938 C 169.03125 41.316406 168.96875 41.449219 168.945312 41.589844 L 168.5 44.664062 L 168.054688 41.582031 C 168.027344 41.441406 167.964844 41.316406 167.867188 41.210938 C 167.761719 41.113281 167.628906 41.050781 167.488281 41.023438 L 164.414062 40.578125 L 167.496094 40.132812 C 167.636719 40.109375 167.761719 40.042969 167.867188 39.949219 C 167.964844 39.84375 168.027344 39.710938 168.054688 39.570312 Z M 168.5 36.496094 " fill-opacity="1" fill-rule="nonzero"/><path fill="#ffff00" d="M 212.300781 0.117188 L 212.746094 3.199219 C 212.773438 3.335938 212.835938 3.464844 212.933594 3.570312 C 213.039062 3.667969 213.171875 3.730469 213.3125 3.753906 L 216.386719 4.199219 L 213.304688 4.644531 C 213.164062 4.671875 213.039062 4.734375 212.933594 4.832031 C 212.835938 4.9375 212.769531 5.066406 212.746094 5.210938 L 212.300781 8.285156 L 211.855469 5.203125 C 211.832031 5.0625 211.765625 4.933594 211.671875 4.832031 C 211.566406 4.734375 211.433594 4.667969 211.292969 4.644531 L 208.21875 4.199219 L 211.300781 3.753906 C 211.4375 3.730469 211.566406 3.664062 211.671875 3.570312 C 211.769531 3.464844 211.832031 3.332031 211.855469 3.191406 Z M 212.300781 0.117188 " fill-opacity="1" fill-rule="nonzero"/><path fill="#ffff00" d="M 40.800781 63.964844 L 41.652344 69.839844 C 41.683594 70.121094 41.808594 70.382812 42.007812 70.582031 C 42.210938 70.78125 42.472656 70.910156 42.753906 70.945312 L 48.59375 71.761719 L 42.722656 72.617188 C 42.441406 72.644531 42.179688 72.773438 41.980469 72.972656 C 41.78125 73.171875 41.652344 73.433594 41.617188 73.714844 L 40.800781 79.558594 L 39.945312 73.683594 C 39.914062 73.402344 39.789062 73.140625 39.589844 72.941406 C 39.390625 72.742188 39.128906 72.613281 38.847656 72.578125 L 33.003906 71.761719 L 38.875 70.910156 C 39.15625 70.878906 39.421875 70.753906 39.617188 70.550781 C 39.820312 70.351562 39.945312 70.089844 39.984375 69.808594 Z M 40.800781 63.964844 " fill-opacity="1" fill-rule="nonzero"/><path fill="#ffff00" d="M 279.121094 38.722656 L 279.566406 41.804688 C 279.59375 41.945312 279.65625 42.070312 279.753906 42.175781 C 279.859375 42.273438 279.988281 42.335938 280.132812 42.363281 L 283.203125 42.808594 L 280.132812 43.253906 C 279.835938 43.289062 279.601562 43.519531 279.566406 43.816406 L 279.121094 46.890625 L 278.675781 43.808594 C 278.652344 43.671875 278.585938 43.542969 278.492188 43.4375 C 278.386719 43.339844 278.253906 43.277344 278.113281 43.253906 L 275.039062 42.808594 L 278.113281 42.363281 C 278.40625 42.324219 278.640625 42.09375 278.675781 41.796875 Z M 279.121094 38.722656 " fill-opacity="1" fill-rule="nonzero"/><path fill="#ffff00" d="M 32.632812 121.875 L 33.078125 124.949219 C 33.113281 125.246094 33.347656 125.480469 33.640625 125.515625 L 36.714844 125.960938 L 33.640625 126.40625 C 33.347656 126.441406 33.113281 126.675781 33.078125 126.96875 L 32.632812 130.042969 L 32.1875 126.960938 C 32.160156 126.824219 32.097656 126.695312 32 126.589844 C 31.898438 126.488281 31.765625 126.425781 31.625 126.40625 L 28.550781 125.960938 L 31.625 125.515625 C 31.917969 125.480469 32.152344 125.246094 32.1875 124.949219 Z M 32.632812 121.875 " fill-opacity="1" fill-rule="nonzero"/><g clip-path="url(#33595ea4a7)"><path fill="#ffff00" d="M 365.242188 129.300781 L 365.6875 132.382812 C 365.710938 132.523438 365.777344 132.65625 365.882812 132.753906 C 365.988281 132.847656 366.113281 132.914062 366.253906 132.9375 L 369.328125 133.382812 L 366.253906 133.828125 C 365.957031 133.867188 365.726562 134.097656 365.6875 134.394531 L 365.242188 137.46875 L 364.796875 134.386719 C 364.773438 134.246094 364.707031 134.121094 364.613281 134.015625 C 364.507812 133.917969 364.375 133.851562 364.234375 133.828125 L 361.160156 133.382812 L 364.242188 132.9375 C 364.378906 132.914062 364.507812 132.847656 364.613281 132.753906 C 364.710938 132.648438 364.773438 132.515625 364.796875 132.375 Z M 365.242188 129.300781 " fill-opacity="1" fill-rule="nonzero"/></g><path fill="#ffff00" d="M 316.242188 136.726562 L 316.851562 140.917969 C 316.882812 141.113281 316.972656 141.292969 317.113281 141.433594 C 317.246094 141.574219 317.421875 141.664062 317.617188 141.683594 L 321.8125 142.292969 L 317.617188 142.902344 C 317.421875 142.933594 317.242188 143.023438 317.105469 143.160156 C 316.964844 143.296875 316.875 143.472656 316.851562 143.667969 L 316.242188 147.863281 L 315.632812 143.667969 C 315.605469 143.472656 315.511719 143.292969 315.375 143.15625 C 315.242188 143.011719 315.0625 142.925781 314.871094 142.902344 L 310.675781 142.292969 L 314.871094 141.683594 C 315.0625 141.65625 315.242188 141.5625 315.382812 141.425781 C 315.523438 141.292969 315.613281 141.113281 315.632812 140.917969 Z M 316.242188 136.726562 " fill-opacity="1" fill-rule="nonzero"/><path fill="#ffff00" d="M 239.773438 51.34375 L 240.382812 55.539062 C 240.410156 55.734375 240.503906 55.914062 240.640625 56.050781 C 240.773438 56.191406 240.953125 56.28125 241.144531 56.304688 L 245.339844 56.914062 L 241.144531 57.523438 C 240.953125 57.550781 240.773438 57.644531 240.632812 57.78125 C 240.492188 57.914062 240.402344 58.09375 240.382812 58.285156 L 239.773438 62.480469 L 239.164062 58.285156 C 239.132812 58.09375 239.042969 57.914062 238.902344 57.773438 C 238.769531 57.632812 238.59375 57.542969 238.398438 57.523438 L 234.203125 56.914062 L 238.398438 56.304688 C 238.59375 56.273438 238.773438 56.183594 238.910156 56.042969 C 239.050781 55.910156 239.140625 55.734375 239.164062 55.539062 Z M 239.773438 51.34375 " fill-opacity="1" fill-rule="nonzero"/><path fill="#ffff00" d="M 259.816406 5.3125 L 260.933594 12.863281 C 260.980469 13.214844 261.140625 13.535156 261.390625 13.785156 C 261.640625 14.03125 261.960938 14.191406 262.304688 14.246094 L 269.839844 15.335938 L 262.289062 16.449219 C 261.578125 16.554688 261.015625 17.113281 260.910156 17.824219 L 259.816406 25.359375 L 258.703125 17.808594 C 258.65625 17.460938 258.492188 17.136719 258.242188 16.886719 C 257.996094 16.644531 257.675781 16.484375 257.332031 16.429688 L 249.796875 15.335938 L 257.347656 14.222656 C 258.058594 14.121094 258.621094 13.5625 258.726562 12.851562 Z M 259.816406 5.3125 " fill-opacity="1" fill-rule="nonzero"/><g clip-path="url(#3c74814091)"><path fill="#ffff00" d="M 343.34375 151.574219 C 343.34375 151.769531 343.304688 151.960938 343.230469 152.140625 C 343.152344 152.324219 343.046875 152.484375 342.90625 152.625 C 342.769531 152.761719 342.605469 152.871094 342.425781 152.945312 C 342.242188 153.019531 342.054688 153.058594 341.855469 153.058594 C 341.660156 153.058594 341.472656 153.019531 341.289062 152.945312 C 341.105469 152.871094 340.945312 152.761719 340.808594 152.625 C 340.667969 152.484375 340.5625 152.324219 340.484375 152.140625 C 340.410156 151.960938 340.371094 151.769531 340.371094 151.574219 C 340.371094 151.378906 340.410156 151.1875 340.484375 151.003906 C 340.5625 150.824219 340.667969 150.664062 340.808594 150.523438 C 340.945312 150.382812 341.105469 150.277344 341.289062 150.203125 C 341.472656 150.125 341.660156 150.089844 341.855469 150.089844 C 342.054688 150.089844 342.242188 150.125 342.425781 150.203125 C 342.605469 150.277344 342.769531 150.382812 342.90625 150.523438 C 343.046875 150.664062 343.152344 150.824219 343.230469 151.003906 C 343.304688 151.1875 343.34375 151.378906 343.34375 151.574219 Z M 343.34375 151.574219 " fill-opacity="1" fill-rule="nonzero"/></g><path fill="#ffff00" d="M 148.824219 61.046875 C 148.824219 61.34375 148.765625 61.628906 148.65625 61.902344 C 148.542969 62.175781 148.378906 62.414062 148.171875 62.625 C 147.960938 62.832031 147.722656 62.992188 147.449219 63.105469 C 147.175781 63.21875 146.890625 63.277344 146.597656 63.277344 C 146.300781 63.277344 146.015625 63.21875 145.746094 63.105469 C 145.472656 62.992188 145.230469 62.832031 145.023438 62.625 C 144.8125 62.414062 144.652344 62.175781 144.539062 61.902344 C 144.425781 61.628906 144.371094 61.34375 144.371094 61.046875 C 144.371094 60.753906 144.425781 60.46875 144.539062 60.195312 C 144.652344 59.921875 144.8125 59.683594 145.023438 59.472656 C 145.230469 59.265625 145.472656 59.105469 145.746094 58.992188 C 146.015625 58.878906 146.300781 58.820312 146.597656 58.820312 C 146.890625 58.820312 147.175781 58.878906 147.449219 58.992188 C 147.722656 59.105469 147.960938 59.265625 148.171875 59.472656 C 148.378906 59.683594 148.542969 59.921875 148.65625 60.195312 C 148.765625 60.46875 148.824219 60.753906 148.824219 61.046875 Z M 148.824219 61.046875 " fill-opacity="1" fill-rule="nonzero"/><g clip-path="url(#bcabf4537a)"><path fill="#ffff00" d="M 119.347656 371.832031 L 118.539062 366.035156 C 118.496094 365.769531 118.371094 365.523438 118.179688 365.332031 C 117.988281 365.144531 117.742188 365.019531 117.476562 364.976562 L 111.691406 364.167969 L 117.484375 363.355469 C 117.753906 363.316406 118 363.191406 118.191406 363 C 118.378906 362.808594 118.503906 362.5625 118.546875 362.296875 L 119.355469 356.507812 L 120.164062 362.304688 C 120.230469 362.546875 120.367188 362.765625 120.5625 362.929688 C 120.753906 363.117188 121 363.242188 121.265625 363.285156 L 127.050781 364.09375 L 121.257812 364.902344 C 120.980469 364.96875 120.734375 365.128906 120.5625 365.355469 C 120.371094 365.546875 120.246094 365.792969 120.203125 366.058594 Z M 119.347656 371.832031 " fill-opacity="1" fill-rule="nonzero"/></g><path fill="#ffff00" d="M 217.28125 139.539062 L 216.617188 134.964844 C 216.585938 134.753906 216.488281 134.558594 216.335938 134.40625 C 216.191406 134.253906 215.996094 134.15625 215.785156 134.132812 L 211.210938 133.46875 L 215.785156 132.804688 C 215.996094 132.773438 216.191406 132.671875 216.34375 132.519531 C 216.496094 132.375 216.59375 132.179688 216.617188 131.96875 L 217.28125 127.398438 L 217.945312 131.96875 C 217.976562 132.179688 218.078125 132.378906 218.230469 132.527344 C 218.375 132.683594 218.570312 132.78125 218.78125 132.804688 L 223.351562 133.46875 L 218.78125 134.132812 C 218.570312 134.164062 218.371094 134.261719 218.222656 134.414062 C 218.066406 134.558594 217.96875 134.753906 217.945312 134.964844 Z M 217.28125 139.539062 " fill-opacity="1" fill-rule="nonzero"/><path fill="#ffff00" d="M 186.929688 341.074219 C 186.929688 340.753906 186.992188 340.441406 187.117188 340.144531 C 187.238281 339.847656 187.414062 339.585938 187.640625 339.359375 C 187.871094 339.128906 188.132812 338.953125 188.429688 338.832031 C 188.726562 338.707031 189.035156 338.644531 189.359375 338.644531 C 189.679688 338.644531 189.992188 338.707031 190.289062 338.832031 C 190.585938 338.953125 190.847656 339.128906 191.074219 339.359375 C 191.304688 339.585938 191.480469 339.847656 191.601562 340.144531 C 191.726562 340.441406 191.785156 340.753906 191.785156 341.074219 C 191.785156 341.394531 191.726562 341.707031 191.601562 342.003906 C 191.480469 342.300781 191.304688 342.5625 191.074219 342.792969 C 190.847656 343.019531 190.585938 343.195312 190.289062 343.316406 C 189.992188 343.441406 189.679688 343.503906 189.359375 343.503906 C 189.035156 343.503906 188.726562 343.441406 188.429688 343.316406 C 188.132812 343.195312 187.871094 343.019531 187.640625 342.792969 C 187.414062 342.5625 187.238281 342.300781 187.117188 342.003906 C 186.992188 341.707031 186.929688 341.394531 186.929688 341.074219 Z M 186.929688 341.074219 " fill-opacity="1" fill-rule="nonzero"/><path fill="#ffff00" d="M 94.257812 246.375 L 93.769531 243.019531 C 93.742188 242.867188 93.671875 242.726562 93.566406 242.613281 C 93.453125 242.507812 93.308594 242.4375 93.15625 242.410156 L 89.804688 241.925781 L 93.164062 241.4375 C 93.316406 241.410156 93.453125 241.339844 93.566406 241.238281 C 93.675781 241.121094 93.746094 240.980469 93.769531 240.824219 L 94.257812 237.472656 L 94.742188 240.832031 C 94.769531 240.984375 94.839844 241.125 94.945312 241.238281 C 95.058594 241.34375 95.203125 241.414062 95.355469 241.4375 L 98.707031 241.925781 L 95.347656 242.410156 C 95.199219 242.4375 95.058594 242.507812 94.945312 242.613281 C 94.839844 242.726562 94.769531 242.871094 94.742188 243.027344 Z M 94.257812 246.375 " fill-opacity="1" fill-rule="nonzero"/><path fill="#ffff00" d="M 46.503906 286.035156 L 46.015625 282.675781 C 45.988281 282.527344 45.917969 282.386719 45.816406 282.273438 C 45.699219 282.167969 45.554688 282.097656 45.402344 282.070312 L 42.050781 281.585938 L 45.410156 281.097656 C 45.5625 281.070312 45.703125 281 45.816406 280.898438 C 45.921875 280.78125 45.992188 280.636719 46.015625 280.484375 L 46.503906 277.132812 L 46.988281 280.492188 C 47.015625 280.644531 47.085938 280.785156 47.191406 280.898438 C 47.304688 281.003906 47.449219 281.074219 47.601562 281.097656 L 50.953125 281.585938 L 47.59375 282.070312 C 47.445312 282.097656 47.304688 282.167969 47.191406 282.273438 C 47.085938 282.386719 47.015625 282.53125 46.988281 282.6875 Z M 46.503906 286.035156 " fill-opacity="1" fill-rule="nonzero"/><path fill="#ffff00" d="M 233.46875 216.429688 L 232.539062 210.027344 C 232.507812 209.71875 232.371094 209.433594 232.152344 209.21875 C 231.933594 209 231.648438 208.859375 231.339844 208.820312 L 224.972656 207.929688 L 231.375 207 C 231.679688 206.96875 231.964844 206.832031 232.183594 206.613281 C 232.402344 206.394531 232.539062 206.109375 232.578125 205.800781 L 233.46875 199.433594 L 234.402344 205.835938 C 234.433594 206.140625 234.570312 206.425781 234.789062 206.644531 C 235.007812 206.863281 235.292969 207 235.597656 207.039062 L 241.96875 207.929688 L 235.566406 208.863281 C 235.257812 208.894531 234.972656 209.03125 234.757812 209.25 C 234.539062 209.46875 234.398438 209.753906 234.359375 210.058594 Z M 233.46875 216.429688 " fill-opacity="1" fill-rule="nonzero"/><path fill="#ffff00" d="M 289.316406 153.296875 L 288.832031 149.9375 C 288.804688 149.789062 288.734375 149.648438 288.628906 149.535156 C 288.515625 149.429688 288.371094 149.359375 288.214844 149.332031 L 284.867188 148.847656 L 288.226562 148.359375 C 288.375 148.332031 288.515625 148.261719 288.628906 148.15625 C 288.734375 148.042969 288.804688 147.898438 288.832031 147.746094 L 289.316406 144.394531 L 289.804688 147.753906 C 289.832031 147.90625 289.902344 148.042969 290.003906 148.15625 C 290.121094 148.265625 290.261719 148.335938 290.417969 148.359375 L 293.769531 148.847656 L 290.410156 149.332031 C 290.257812 149.359375 290.117188 149.429688 290.003906 149.535156 C 289.898438 149.648438 289.828125 149.792969 289.804688 149.945312 Z M 289.316406 153.296875 " fill-opacity="1" fill-rule="nonzero"/><path fill="#ffff00" d="M 242.375 153.296875 L 241.886719 149.945312 C 241.847656 149.625 241.59375 149.371094 241.273438 149.332031 L 237.921875 148.847656 L 241.273438 148.359375 C 241.59375 148.320312 241.847656 148.066406 241.886719 147.746094 L 242.375 144.394531 L 242.859375 147.753906 C 242.886719 147.90625 242.957031 148.042969 243.0625 148.15625 C 243.171875 148.269531 243.320312 148.339844 243.472656 148.359375 L 246.824219 148.847656 L 243.472656 149.332031 C 243.152344 149.371094 242.898438 149.625 242.859375 149.945312 Z M 242.375 153.296875 " fill-opacity="1" fill-rule="nonzero"/><path fill="#ffff00" d="M 120.15625 307.082031 L 119.492188 302.507812 C 119.460938 302.296875 119.359375 302.101562 119.210938 301.949219 C 119.0625 301.796875 118.871094 301.699219 118.660156 301.671875 L 114.085938 301.011719 L 118.660156 300.347656 C 118.871094 300.3125 119.066406 300.214844 119.21875 300.0625 C 119.371094 299.917969 119.46875 299.722656 119.492188 299.511719 L 120.15625 294.941406 L 120.820312 299.511719 C 120.851562 299.722656 120.953125 299.917969 121.101562 300.070312 C 121.25 300.226562 121.441406 300.320312 121.652344 300.347656 L 126.226562 301.011719 L 121.652344 301.671875 C 121.441406 301.707031 121.246094 301.804688 121.09375 301.957031 C 120.941406 302.101562 120.84375 302.296875 120.820312 302.507812 Z M 120.15625 307.082031 " fill-opacity="1" fill-rule="nonzero"/><path fill="#ffff00" d="M 16.554688 230.1875 L 15.890625 225.617188 C 15.859375 225.40625 15.757812 225.207031 15.609375 225.058594 C 15.460938 224.902344 15.269531 224.804688 15.058594 224.78125 L 10.484375 224.117188 L 15.058594 223.453125 C 15.269531 223.421875 15.464844 223.324219 15.617188 223.171875 C 15.769531 223.027344 15.867188 222.832031 15.890625 222.621094 L 16.554688 218.046875 L 17.21875 222.621094 C 17.25 222.832031 17.351562 223.027344 17.503906 223.179688 C 17.648438 223.332031 17.84375 223.429688 18.054688 223.453125 L 22.625 224.117188 L 18.054688 224.78125 C 17.839844 224.816406 17.644531 224.914062 17.496094 225.066406 C 17.339844 225.210938 17.242188 225.40625 17.21875 225.617188 Z M 16.554688 230.1875 " fill-opacity="1" fill-rule="nonzero"/><g clip-path="url(#4ca824cab2)"><path fill="#ffff00" d="M -5.296875 280.371094 L -6.511719 272.140625 C -6.566406 271.757812 -6.742188 271.40625 -7.015625 271.136719 C -7.285156 270.867188 -7.632812 270.695312 -8.007812 270.632812 L -16.226562 269.445312 L -7.992188 268.230469 C -7.214844 268.117188 -6.605469 267.507812 -6.488281 266.734375 L -5.296875 258.515625 L -4.082031 266.75 C -4.03125 267.128906 -3.855469 267.480469 -3.582031 267.753906 C -3.308594 268.019531 -2.960938 268.195312 -2.585938 268.253906 L 5.628906 269.445312 L -2.601562 270.65625 C -3.378906 270.769531 -3.992188 271.378906 -4.109375 272.15625 Z M -5.296875 280.371094 " fill-opacity="1" fill-rule="nonzero"/></g><path fill="#ffff00" d="M 31.527344 349.167969 C 31.527344 348.953125 31.570312 348.746094 31.652344 348.550781 C 31.734375 348.351562 31.851562 348.175781 32.003906 348.023438 C 32.15625 347.871094 32.328125 347.753906 32.527344 347.671875 C 32.726562 347.589844 32.933594 347.550781 33.148438 347.550781 C 33.363281 347.550781 33.570312 347.589844 33.765625 347.671875 C 33.964844 347.753906 34.140625 347.871094 34.292969 348.023438 C 34.445312 348.175781 34.5625 348.351562 34.644531 348.550781 C 34.726562 348.746094 34.765625 348.953125 34.765625 349.167969 C 34.765625 349.382812 34.726562 349.589844 34.644531 349.789062 C 34.5625 349.984375 34.445312 350.160156 34.292969 350.3125 C 34.140625 350.464844 33.964844 350.582031 33.765625 350.664062 C 33.570312 350.746094 33.363281 350.785156 33.148438 350.785156 C 32.933594 350.785156 32.726562 350.746094 32.527344 350.664062 C 32.328125 350.582031 32.15625 350.464844 32.003906 350.3125 C 31.851562 350.160156 31.734375 349.984375 31.652344 349.789062 C 31.570312 349.589844 31.527344 349.382812 31.527344 349.167969 Z M 31.527344 349.167969 " fill-opacity="1" fill-rule="nonzero"/><path fill="#ffff00" d="M 303.480469 190.527344 C 303.480469 190.207031 303.542969 189.898438 303.667969 189.601562 C 303.789062 189.300781 303.964844 189.039062 304.191406 188.8125 C 304.421875 188.585938 304.683594 188.410156 304.980469 188.285156 C 305.277344 188.164062 305.585938 188.101562 305.910156 188.101562 C 306.230469 188.101562 306.542969 188.164062 306.839844 188.285156 C 307.136719 188.410156 307.398438 188.585938 307.625 188.8125 C 307.855469 189.039062 308.03125 189.300781 308.152344 189.601562 C 308.277344 189.898438 308.339844 190.207031 308.339844 190.527344 C 308.339844 190.851562 308.277344 191.160156 308.152344 191.457031 C 308.03125 191.757812 307.855469 192.019531 307.625 192.246094 C 307.398438 192.472656 307.136719 192.648438 306.839844 192.773438 C 306.542969 192.894531 306.230469 192.957031 305.910156 192.957031 C 305.585938 192.957031 305.277344 192.894531 304.980469 192.773438 C 304.683594 192.648438 304.421875 192.472656 304.191406 192.246094 C 303.964844 192.019531 303.789062 191.757812 303.667969 191.457031 C 303.542969 191.160156 303.480469 190.851562 303.480469 190.527344 Z M 303.480469 190.527344 " fill-opacity="1" fill-rule="nonzero"/><path fill="#ffff00" d="M 115.703125 219.609375 C 115.703125 219.289062 115.765625 218.980469 115.890625 218.679688 C 116.011719 218.382812 116.1875 218.121094 116.417969 217.894531 C 116.644531 217.664062 116.90625 217.492188 117.203125 217.367188 C 117.5 217.242188 117.8125 217.183594 118.132812 217.183594 C 118.453125 217.183594 118.765625 217.242188 119.0625 217.367188 C 119.359375 217.492188 119.621094 217.664062 119.851562 217.894531 C 120.078125 218.121094 120.253906 218.382812 120.375 218.679688 C 120.5 218.980469 120.5625 219.289062 120.5625 219.609375 C 120.5625 219.933594 120.5 220.242188 120.375 220.539062 C 120.253906 220.835938 120.078125 221.101562 119.851562 221.328125 C 119.621094 221.554688 119.359375 221.730469 119.0625 221.855469 C 118.765625 221.976562 118.453125 222.039062 118.132812 222.039062 C 117.8125 222.039062 117.5 221.976562 117.203125 221.855469 C 116.90625 221.730469 116.644531 221.554688 116.417969 221.328125 C 116.1875 221.101562 116.011719 220.835938 115.890625 220.539062 C 115.765625 220.242188 115.703125 219.933594 115.703125 219.609375 Z M 115.703125 219.609375 " fill-opacity="1" fill-rule="nonzero"/><g clip-path="url(#a370410b23)"><path fill="#ffff00" d="M 307.527344 251.234375 C 307.527344 251.019531 307.570312 250.8125 307.652344 250.613281 C 307.734375 250.414062 307.851562 250.238281 308.003906 250.089844 C 308.15625 249.9375 308.328125 249.820312 308.527344 249.738281 C 308.726562 249.65625 308.933594 249.613281 309.148438 249.613281 C 309.363281 249.613281 309.570312 249.65625 309.765625 249.738281 C 309.964844 249.820312 310.140625 249.9375 310.292969 250.089844 C 310.445312 250.238281 310.5625 250.414062 310.644531 250.613281 C 310.726562 250.8125 310.765625 251.019531 310.765625 251.234375 C 310.765625 251.449219 310.726562 251.652344 310.644531 251.851562 C 310.5625 252.050781 310.445312 252.226562 310.292969 252.378906 C 310.140625 252.53125 309.964844 252.644531 309.765625 252.726562 C 309.570312 252.8125 309.363281 252.851562 309.148438 252.851562 C 308.933594 252.851562 308.726562 252.8125 308.527344 252.726562 C 308.328125 252.644531 308.15625 252.53125 308.003906 252.378906 C 307.851562 252.226562 307.734375 252.050781 307.652344 251.851562 C 307.570312 251.652344 307.527344 251.449219 307.527344 251.234375 Z M 307.527344 251.234375 " fill-opacity="1" fill-rule="nonzero"/></g><g clip-path="url(#4b83cae563)"><g mask="url(#195b669db1)"><g transform="matrix(1, 0, 0, 1, 273, 240)"><g clip-path="url(#a3a460212e)"><g clip-path="url(#722fe820e7)"><g clip-path="url(#bdeb2cebbf)"><g clip-path="url(#bb22b2c621)"><path fill="#ffff00" d="M 68.523438 12.253906 L 72.007812 9.21875 C 72.167969 9.074219 72.277344 8.886719 72.320312 8.675781 C 72.371094 8.46875 72.347656 8.253906 72.253906 8.066406 L 70.332031 3.863281 L 73.371094 7.34375 C 73.511719 7.503906 73.703125 7.613281 73.910156 7.660156 C 74.117188 7.710938 74.332031 7.6875 74.523438 7.59375 L 78.722656 5.667969 L 75.242188 8.707031 C 75.082031 8.851562 74.972656 9.039062 74.925781 9.25 C 74.875 9.453125 74.898438 9.671875 74.992188 9.859375 L 76.917969 14.0625 L 73.878906 10.582031 C 73.738281 10.421875 73.546875 10.308594 73.339844 10.265625 C 73.132812 10.214844 72.917969 10.238281 72.726562 10.332031 Z M 68.523438 12.253906 " fill-opacity="1" fill-rule="nonzero"/></g></g></g><g clip-path="url(#3e9fac084d)"><g clip-path="url(#df06dad139)"><g clip-path="url(#e8ac831a02)"><path fill="#ffff00" d="M 12.710938 67.566406 L 17.582031 63.308594 C 17.824219 63.117188 17.988281 62.847656 18.054688 62.542969 C 18.117188 62.242188 18.078125 61.929688 17.949219 61.648438 L 15.238281 55.816406 L 19.496094 60.6875 C 19.6875 60.929688 19.957031 61.09375 20.261719 61.15625 C 20.5625 61.222656 20.875 61.183594 21.15625 61.050781 L 26.988281 58.34375 L 22.117188 62.597656 C 21.875 62.792969 21.710938 63.0625 21.648438 63.363281 C 21.582031 63.667969 21.621094 63.980469 21.753906 64.261719 L 24.460938 70.09375 L 20.207031 65.21875 C 20.011719 64.980469 19.742188 64.816406 19.441406 64.75 C 19.136719 64.6875 18.824219 64.726562 18.542969 64.855469 Z M 12.710938 67.566406 " fill-opacity="1" fill-rule="nonzero"/></g></g></g><g clip-path="url(#c578aa4f59)"><g clip-path="url(#23cea49616)"><g clip-path="url(#d7069168b7)"><path fill="#ffff00" d="M 96.042969 80.234375 L 98.601562 78.003906 C 98.710938 77.898438 98.792969 77.765625 98.828125 77.617188 C 98.855469 77.460938 98.839844 77.304688 98.777344 77.160156 L 97.367188 74.082031 L 99.597656 76.640625 C 99.703125 76.75 99.835938 76.832031 99.984375 76.867188 C 100.140625 76.894531 100.296875 76.878906 100.441406 76.816406 L 103.519531 75.40625 L 100.960938 77.636719 C 100.851562 77.742188 100.769531 77.875 100.730469 78.023438 C 100.707031 78.179688 100.722656 78.335938 100.785156 78.480469 L 102.195312 81.558594 L 99.964844 79 C 99.859375 78.890625 99.726562 78.808594 99.578125 78.769531 C 99.421875 78.746094 99.265625 78.761719 99.121094 78.824219 Z M 96.042969 80.234375 " fill-opacity="1" fill-rule="nonzero"/></g></g></g><g clip-path="url(#f717e20be4)"><g clip-path="url(#58bda179b6)"><g clip-path="url(#ff88732ca0)"><path fill="#ffff00" d="M 70.578125 40.796875 L 73.128906 38.574219 C 73.378906 38.363281 73.453125 38.011719 73.3125 37.722656 L 71.902344 34.644531 L 74.125 37.195312 C 74.335938 37.445312 74.6875 37.519531 74.976562 37.378906 L 78.054688 35.96875 L 75.496094 38.199219 C 75.386719 38.304688 75.304688 38.4375 75.265625 38.589844 C 75.234375 38.742188 75.253906 38.902344 75.320312 39.042969 L 76.730469 42.121094 L 74.503906 39.570312 C 74.296875 39.320312 73.945312 39.246094 73.65625 39.386719 Z M 70.578125 40.796875 " fill-opacity="1" fill-rule="nonzero"/></g></g></g><g clip-path="url(#65101aaccf)"><g clip-path="url(#5238247304)"><g clip-path="url(#625b9d4f03)"><path fill="#ffff00" d="M 72.445312 112.332031 C 72.71875 112.15625 73.011719 112.039062 73.328125 111.980469 C 73.644531 111.925781 73.960938 111.929688 74.273438 111.996094 C 74.589844 112.066406 74.878906 112.191406 75.144531 112.375 C 75.410156 112.554688 75.628906 112.78125 75.804688 113.054688 C 75.980469 113.324219 76.09375 113.617188 76.152344 113.933594 C 76.210938 114.25 76.207031 114.566406 76.136719 114.882812 C 76.070312 115.195312 75.945312 115.484375 75.761719 115.75 C 75.578125 116.015625 75.351562 116.234375 75.082031 116.410156 C 74.8125 116.585938 74.515625 116.703125 74.199219 116.757812 C 73.882812 116.816406 73.566406 116.8125 73.253906 116.746094 C 72.9375 116.675781 72.648438 116.550781 72.382812 116.367188 C 72.117188 116.183594 71.898438 115.957031 71.722656 115.6875 C 71.550781 115.417969 71.433594 115.125 71.375 114.808594 C 71.316406 114.488281 71.324219 114.175781 71.390625 113.859375 C 71.457031 113.542969 71.582031 113.253906 71.765625 112.988281 C 71.949219 112.726562 72.175781 112.503906 72.445312 112.332031 Z M 72.445312 112.332031 " fill-opacity="1" fill-rule="nonzero"/></g></g></g></g></g></g></g></g></g></g></g><g mask="url(#8c3e654ff5)"><g transform="matrix(1, 0, 0, 1, 399, 0.000000000000017795)"><g clip-path="url(#4e90272761)"><g clip-path="url(#ffec00e75d)"><g clip-path="url(#16f45e609e)"><g clip-path="url(#c1639f7e9f)"><path fill="#ffff00" d="M 12.863281 169.792969 L 18.644531 169.355469 C 18.910156 169.332031 19.160156 169.222656 19.363281 169.046875 C 19.558594 168.867188 19.699219 168.632812 19.757812 168.371094 L 20.917969 162.699219 L 21.355469 168.480469 C 21.378906 168.746094 21.488281 169 21.664062 169.199219 C 21.84375 169.398438 22.078125 169.535156 22.339844 169.59375 L 28.011719 170.753906 L 22.230469 171.195312 C 21.984375 171.242188 21.761719 171.367188 21.589844 171.546875 C 21.390625 171.726562 21.253906 171.960938 21.195312 172.222656 L 20.035156 177.894531 L 19.59375 172.113281 C 19.546875 171.835938 19.402344 171.582031 19.191406 171.398438 C 19.011719 171.199219 18.777344 171.058594 18.515625 171 Z M 12.863281 169.792969 " fill-opacity="1" fill-rule="nonzero"/></g></g></g><g clip-path="url(#f2660353ed)"><g clip-path="url(#1e048ffb98)"><g clip-path="url(#59ff37b743)"><path fill="#ffff00" d="M 236.4375 281.054688 L 241 280.683594 C 241.210938 280.664062 241.414062 280.578125 241.570312 280.4375 C 241.734375 280.304688 241.839844 280.117188 241.878906 279.910156 L 242.816406 275.429688 L 243.191406 279.992188 C 243.210938 280.203125 243.296875 280.402344 243.4375 280.5625 C 243.570312 280.722656 243.757812 280.832031 243.960938 280.871094 L 248.441406 281.808594 L 243.878906 282.183594 C 243.667969 282.199219 243.46875 282.285156 243.308594 282.425781 C 243.148438 282.5625 243.042969 282.746094 243.003906 282.953125 L 242.0625 287.433594 L 241.691406 282.871094 C 241.671875 282.660156 241.585938 282.460938 241.445312 282.300781 C 241.3125 282.140625 241.125 282.03125 240.917969 281.996094 Z M 236.4375 281.054688 " fill-opacity="1" fill-rule="nonzero"/></g></g></g><g clip-path="url(#0af1122a98)"><g clip-path="url(#402e014d46)"><g clip-path="url(#dad65bf420)"><path fill="#ffff00" d="M 39.070312 238.523438 C 39.390625 238.542969 39.691406 238.625 39.980469 238.765625 C 40.265625 238.90625 40.515625 239.09375 40.726562 239.332031 C 40.9375 239.574219 41.09375 239.84375 41.195312 240.144531 C 41.300781 240.445312 41.339844 240.757812 41.320312 241.074219 C 41.300781 241.394531 41.222656 241.695312 41.082031 241.980469 C 40.941406 242.269531 40.75 242.515625 40.511719 242.726562 C 40.273438 242.9375 40.003906 243.097656 39.699219 243.199219 C 39.398438 243.304688 39.089844 243.34375 38.769531 243.324219 C 38.453125 243.304688 38.148438 243.226562 37.863281 243.085938 C 37.578125 242.945312 37.328125 242.753906 37.117188 242.515625 C 36.90625 242.277344 36.75 242.003906 36.644531 241.703125 C 36.542969 241.402344 36.5 241.089844 36.519531 240.773438 C 36.539062 240.453125 36.621094 240.152344 36.761719 239.867188 C 36.902344 239.578125 37.089844 239.332031 37.332031 239.121094 C 37.570312 238.910156 37.839844 238.753906 38.140625 238.648438 C 38.445312 238.546875 38.753906 238.503906 39.070312 238.523438 Z M 39.070312 238.523438 " fill-opacity="1" fill-rule="nonzero"/></g></g></g><g clip-path="url(#fbbc683096)"><g clip-path="url(#987f47bc3b)"><g clip-path="url(#bbce7c140a)"><path fill="#ffff00" d="M 138.457031 152.785156 L 141.808594 152.511719 C 141.957031 152.496094 142.101562 152.433594 142.21875 152.335938 C 142.332031 152.230469 142.410156 152.09375 142.445312 151.941406 L 143.132812 148.660156 L 143.40625 152.011719 C 143.421875 152.160156 143.484375 152.304688 143.578125 152.421875 C 143.6875 152.535156 143.824219 152.613281 143.976562 152.648438 L 147.257812 153.335938 L 143.90625 153.609375 C 143.757812 153.625 143.613281 153.6875 143.496094 153.78125 C 143.382812 153.890625 143.304688 154.027344 143.269531 154.179688 L 142.582031 157.460938 L 142.308594 154.109375 C 142.292969 153.957031 142.230469 153.816406 142.132812 153.699219 C 142.027344 153.585938 141.890625 153.507812 141.738281 153.472656 Z M 138.457031 152.785156 " fill-opacity="1" fill-rule="nonzero"/></g></g></g><g clip-path="url(#6fd927741a)"><g clip-path="url(#ad794a0c58)"><g clip-path="url(#2696fd7a1a)"><path fill="#ffff00" d="M 102.210938 103.105469 L 105.5625 102.835938 C 105.714844 102.816406 105.859375 102.757812 105.976562 102.660156 C 106.089844 102.554688 106.167969 102.414062 106.203125 102.265625 L 106.890625 98.980469 L 107.160156 102.332031 C 107.179688 102.484375 107.242188 102.628906 107.335938 102.746094 C 107.445312 102.859375 107.582031 102.9375 107.734375 102.972656 L 111.015625 103.660156 L 107.664062 103.929688 C 107.511719 103.949219 107.371094 104.007812 107.25 104.105469 C 107.140625 104.214844 107.0625 104.351562 107.027344 104.5 L 106.335938 107.785156 L 106.066406 104.433594 C 106.046875 104.28125 105.988281 104.140625 105.890625 104.019531 C 105.785156 103.910156 105.648438 103.828125 105.496094 103.792969 Z M 102.210938 103.105469 " fill-opacity="1" fill-rule="nonzero"/></g></g></g><g clip-path="url(#cb930b358f)"><g clip-path="url(#618899d487)"><g clip-path="url(#ee39b17ee9)"><path fill="#ffff00" d="M 159.414062 292.28125 L 165.800781 291.757812 C 166.105469 291.746094 166.398438 291.628906 166.625 291.425781 C 166.855469 291.222656 167.007812 290.949219 167.066406 290.648438 L 168.34375 284.40625 L 168.867188 290.792969 C 168.878906 291.101562 168.996094 291.390625 169.199219 291.621094 C 169.402344 291.847656 169.675781 292.003906 169.976562 292.0625 L 176.21875 293.335938 L 169.828125 293.859375 C 169.523438 293.875 169.234375 293.992188 169.003906 294.195312 C 168.777344 294.394531 168.621094 294.667969 168.5625 294.96875 L 167.289062 301.210938 L 166.765625 294.824219 C 166.75 294.519531 166.632812 294.226562 166.429688 294 C 166.226562 293.769531 165.957031 293.617188 165.65625 293.558594 Z M 159.414062 292.28125 " fill-opacity="1" fill-rule="nonzero"/></g></g></g><g clip-path="url(#04fb67f9e4)"><g clip-path="url(#eae18717a7)"><g clip-path="url(#689b6d1813)"><path fill="#ffff00" d="M 218.359375 351.417969 L 221.710938 351.148438 C 221.863281 351.128906 222.003906 351.070312 222.125 350.972656 C 222.234375 350.867188 222.3125 350.730469 222.347656 350.578125 L 223.039062 347.292969 L 223.308594 350.644531 C 223.328125 350.796875 223.386719 350.941406 223.484375 351.058594 C 223.589844 351.171875 223.726562 351.25 223.878906 351.285156 L 227.160156 351.972656 L 223.8125 352.242188 C 223.660156 352.261719 223.515625 352.324219 223.398438 352.417969 C 223.285156 352.527344 223.207031 352.664062 223.171875 352.816406 L 222.484375 356.097656 L 222.210938 352.746094 C 222.195312 352.59375 222.132812 352.453125 222.039062 352.332031 C 221.929688 352.222656 221.792969 352.144531 221.640625 352.109375 Z M 218.359375 351.417969 " fill-opacity="1" fill-rule="nonzero"/></g></g></g><g clip-path="url(#c4b4bddb22)"><g clip-path="url(#fcc0c6165d)"><g clip-path="url(#06c9abecbb)"><path fill="#ffff00" d="M 148.351562 33.703125 L 151.703125 33.429688 C 151.851562 33.414062 151.996094 33.351562 152.113281 33.257812 C 152.226562 33.148438 152.304688 33.011719 152.339844 32.859375 L 153.027344 29.578125 L 153.300781 32.921875 C 153.320312 33.242188 153.554688 33.507812 153.871094 33.566406 L 157.152344 34.253906 L 153.800781 34.527344 C 153.652344 34.542969 153.507812 34.605469 153.390625 34.703125 C 153.277344 34.808594 153.199219 34.945312 153.164062 35.097656 L 152.476562 38.378906 L 152.203125 35.039062 C 152.183594 34.714844 151.949219 34.449219 151.632812 34.390625 Z M 148.351562 33.703125 " fill-opacity="1" fill-rule="nonzero"/></g></g></g><g clip-path="url(#27cdd90c6e)"><g clip-path="url(#29be9bf1e7)"><g clip-path="url(#5682a3405f)"><path fill="#ffff00" d="M 221.277344 305.007812 L 224.621094 304.734375 C 224.941406 304.714844 225.207031 304.480469 225.265625 304.164062 L 225.953125 300.882812 L 226.226562 304.226562 C 226.246094 304.546875 226.480469 304.8125 226.796875 304.871094 L 230.078125 305.558594 L 226.726562 305.832031 C 226.578125 305.847656 226.433594 305.910156 226.316406 306.007812 C 226.199219 306.109375 226.121094 306.25 226.089844 306.402344 L 225.402344 309.683594 L 225.128906 306.339844 C 225.109375 306.019531 224.875 305.753906 224.558594 305.695312 Z M 221.277344 305.007812 " fill-opacity="1" fill-rule="nonzero"/></g></g></g><g clip-path="url(#e993fab89e)"><g clip-path="url(#4a1425fdc7)"><g clip-path="url(#65258fcce9)"><path fill="#ffff00" d="M 76.832031 174.617188 L 81.394531 174.246094 C 81.605469 174.226562 81.804688 174.140625 81.960938 174 C 82.125 173.867188 82.230469 173.679688 82.269531 173.472656 L 83.210938 168.992188 L 83.582031 173.554688 C 83.601562 173.765625 83.6875 173.96875 83.828125 174.125 C 83.960938 174.289062 84.148438 174.394531 84.355469 174.433594 L 88.832031 175.371094 L 84.269531 175.746094 C 84.058594 175.761719 83.859375 175.851562 83.703125 175.988281 C 83.539062 176.125 83.433594 176.3125 83.394531 176.515625 L 82.453125 180.996094 L 82.082031 176.433594 C 82.0625 176.222656 81.976562 176.023438 81.835938 175.863281 C 81.703125 175.703125 81.515625 175.597656 81.308594 175.558594 Z M 76.832031 174.617188 " fill-opacity="1" fill-rule="nonzero"/></g></g></g><g clip-path="url(#a8b789366e)"><g clip-path="url(#761dd37a91)"><g clip-path="url(#377096261d)"><path fill="#ffff00" d="M 256.492188 0.332031 L 261.054688 -0.0429688 C 261.265625 -0.0585938 261.46875 -0.144531 261.625 -0.285156 C 261.785156 -0.421875 261.894531 -0.605469 261.933594 -0.8125 L 262.871094 -5.292969 L 263.246094 -0.730469 C 263.261719 -0.519531 263.351562 -0.320312 263.488281 -0.160156 C 263.625 0 263.808594 0.109375 264.015625 0.144531 L 268.496094 1.085938 L 263.933594 1.457031 C 263.722656 1.476562 263.523438 1.5625 263.363281 1.703125 C 263.203125 1.835938 263.09375 2.023438 263.058594 2.230469 L 262.117188 6.710938 L 261.746094 2.148438 C 261.726562 1.9375 261.640625 1.738281 261.5 1.578125 C 261.367188 1.417969 261.179688 1.308594 260.972656 1.269531 Z M 256.492188 0.332031 " fill-opacity="1" fill-rule="nonzero"/></g></g></g><g clip-path="url(#4daf17fe3e)"><g clip-path="url(#f39e787c4a)"><g clip-path="url(#972f8c7d8a)"><path fill="#ffff00" d="M 159.289062 76.96875 L 163.851562 76.597656 C 164.0625 76.578125 164.261719 76.492188 164.421875 76.351562 C 164.582031 76.21875 164.691406 76.03125 164.726562 75.824219 L 165.667969 71.34375 L 166.039062 75.90625 C 166.058594 76.117188 166.144531 76.316406 166.285156 76.476562 C 166.417969 76.636719 166.605469 76.746094 166.8125 76.78125 L 171.292969 77.722656 L 166.730469 78.09375 C 166.519531 78.113281 166.320312 78.199219 166.160156 78.339844 C 166 78.476562 165.890625 78.660156 165.851562 78.867188 L 164.914062 83.347656 L 164.539062 78.785156 C 164.523438 78.574219 164.4375 78.375 164.296875 78.214844 C 164.160156 78.054688 163.976562 77.945312 163.769531 77.910156 Z M 159.289062 76.96875 " fill-opacity="1" fill-rule="nonzero"/></g></g></g><g clip-path="url(#bed33aae39)"><g clip-path="url(#8616a0316c)"><g clip-path="url(#1e87ccec03)"><path fill="#ffff00" d="M 111.035156 52.246094 L 119.246094 51.554688 C 119.625 51.527344 119.984375 51.375 120.269531 51.121094 C 120.550781 50.871094 120.746094 50.539062 120.828125 50.167969 L 122.515625 42.121094 L 123.203125 50.335938 C 123.265625 51.109375 123.832031 51.753906 124.589844 51.914062 L 132.640625 53.601562 L 124.425781 54.292969 C 124.046875 54.320312 123.6875 54.472656 123.402344 54.726562 C 123.121094 54.976562 122.925781 55.308594 122.84375 55.679688 L 121.15625 63.726562 L 120.46875 55.511719 C 120.40625 54.738281 119.839844 54.09375 119.082031 53.929688 Z M 111.035156 52.246094 " fill-opacity="1" fill-rule="nonzero"/></g></g></g><g clip-path="url(#bc1ed4e2d9)"><g clip-path="url(#6a35d11082)"><g clip-path="url(#148d4ce5c2)"><path fill="#ffff00" d="M 26.984375 47.363281 C 27.304688 47.382812 27.605469 47.464844 27.894531 47.605469 C 28.179688 47.746094 28.429688 47.933594 28.640625 48.171875 C 28.851562 48.414062 29.007812 48.683594 29.109375 48.984375 C 29.214844 49.285156 29.253906 49.597656 29.234375 49.914062 C 29.214844 50.234375 29.136719 50.535156 28.996094 50.824219 C 28.855469 51.109375 28.664062 51.359375 28.425781 51.570312 C 28.1875 51.78125 27.914062 51.9375 27.613281 52.039062 C 27.3125 52.144531 27.003906 52.183594 26.683594 52.164062 C 26.367188 52.144531 26.0625 52.066406 25.777344 51.925781 C 25.488281 51.785156 25.242188 51.59375 25.03125 51.355469 C 24.820312 51.117188 24.664062 50.84375 24.558594 50.542969 C 24.457031 50.242188 24.414062 49.933594 24.433594 49.613281 C 24.453125 49.296875 24.535156 48.992188 24.675781 48.707031 C 24.816406 48.421875 25.003906 48.171875 25.242188 47.960938 C 25.484375 47.75 25.753906 47.59375 26.054688 47.488281 C 26.355469 47.386719 26.667969 47.34375 26.984375 47.363281 Z M 26.984375 47.363281 " fill-opacity="1" fill-rule="nonzero"/></g></g></g><g clip-path="url(#4cef7ad209)"><g clip-path="url(#e11f424bce)"><g clip-path="url(#da267d4552)"><path fill="#ffff00" d="M 40.726562 84.378906 C 40.9375 84.394531 41.140625 84.445312 41.332031 84.539062 C 41.523438 84.632812 41.6875 84.757812 41.828125 84.917969 C 41.96875 85.078125 42.074219 85.257812 42.144531 85.460938 C 42.210938 85.660156 42.238281 85.867188 42.226562 86.082031 C 42.214844 86.292969 42.160156 86.496094 42.066406 86.683594 C 41.972656 86.875 41.847656 87.042969 41.6875 87.183594 C 41.527344 87.324219 41.347656 87.429688 41.144531 87.496094 C 40.945312 87.566406 40.738281 87.59375 40.523438 87.582031 C 40.3125 87.566406 40.113281 87.511719 39.921875 87.417969 C 39.730469 87.328125 39.5625 87.199219 39.421875 87.039062 C 39.28125 86.882812 39.175781 86.699219 39.109375 86.5 C 39.039062 86.296875 39.011719 86.089844 39.027344 85.878906 C 39.039062 85.667969 39.09375 85.464844 39.1875 85.273438 C 39.28125 85.082031 39.40625 84.917969 39.566406 84.777344 C 39.726562 84.636719 39.90625 84.53125 40.105469 84.460938 C 40.308594 84.394531 40.515625 84.367188 40.726562 84.378906 Z M 40.726562 84.378906 " fill-opacity="1" fill-rule="nonzero"/></g></g></g><g clip-path="url(#58d407c533)"><g clip-path="url(#4699fb3f09)"><g clip-path="url(#d31d756755)"><path fill="#ffff00" d="M 50.757812 1.457031 C 51.183594 1.484375 51.585938 1.59375 51.96875 1.78125 C 52.351562 1.964844 52.683594 2.21875 52.964844 2.539062 C 53.246094 2.859375 53.453125 3.21875 53.589844 3.621094 C 53.730469 4.023438 53.785156 4.4375 53.757812 4.859375 C 53.730469 5.285156 53.625 5.6875 53.4375 6.070312 C 53.25 6.453125 52.996094 6.785156 52.679688 7.066406 C 52.359375 7.347656 52 7.554688 51.597656 7.695312 C 51.195312 7.832031 50.78125 7.886719 50.355469 7.859375 C 49.933594 7.832031 49.527344 7.726562 49.148438 7.539062 C 48.765625 7.351562 48.433594 7.101562 48.152344 6.78125 C 47.871094 6.460938 47.660156 6.101562 47.523438 5.699219 C 47.386719 5.296875 47.328125 4.882812 47.355469 4.457031 C 47.382812 4.035156 47.488281 3.628906 47.675781 3.25 C 47.863281 2.867188 48.117188 2.535156 48.4375 2.253906 C 48.753906 1.972656 49.117188 1.761719 49.519531 1.625 C 49.921875 1.488281 50.335938 1.433594 50.757812 1.457031 Z M 50.757812 1.457031 " fill-opacity="1" fill-rule="nonzero"/></g></g></g><g clip-path="url(#55bafe5703)"><g clip-path="url(#ef4341172b)"><g clip-path="url(#70331f8bb1)"><path fill="#ffff00" d="M 180.667969 363.109375 C 180.988281 363.128906 181.289062 363.210938 181.578125 363.351562 C 181.863281 363.492188 182.113281 363.679688 182.324219 363.917969 C 182.535156 364.160156 182.691406 364.429688 182.792969 364.730469 C 182.898438 365.03125 182.9375 365.34375 182.917969 365.660156 C 182.898438 365.980469 182.820312 366.28125 182.679688 366.566406 C 182.539062 366.855469 182.347656 367.101562 182.109375 367.3125 C 181.871094 367.523438 181.597656 367.683594 181.296875 367.785156 C 180.996094 367.890625 180.6875 367.929688 180.367188 367.910156 C 180.050781 367.890625 179.746094 367.8125 179.460938 367.671875 C 179.175781 367.53125 178.925781 367.339844 178.714844 367.101562 C 178.503906 366.863281 178.347656 366.589844 178.242188 366.289062 C 178.140625 365.988281 178.097656 365.675781 178.117188 365.359375 C 178.136719 365.039062 178.21875 364.738281 178.359375 364.453125 C 178.5 364.164062 178.6875 363.917969 178.925781 363.707031 C 179.167969 363.496094 179.4375 363.335938 179.738281 363.234375 C 180.039062 363.132812 180.351562 363.089844 180.667969 363.109375 Z M 180.667969 363.109375 " fill-opacity="1" fill-rule="nonzero"/></g></g></g><g clip-path="url(#9f46c12ad5)"><g clip-path="url(#95821197a9)"><g clip-path="url(#21c5bd530a)"><path fill="#ffff00" d="M 163.585938 175.652344 C 163.90625 175.671875 164.207031 175.753906 164.492188 175.894531 C 164.78125 176.035156 165.027344 176.222656 165.238281 176.460938 C 165.449219 176.703125 165.609375 176.972656 165.710938 177.273438 C 165.8125 177.574219 165.855469 177.886719 165.835938 178.203125 C 165.816406 178.523438 165.734375 178.824219 165.59375 179.109375 C 165.457031 179.398438 165.265625 179.644531 165.027344 179.855469 C 164.785156 180.070312 164.515625 180.226562 164.214844 180.328125 C 163.914062 180.433594 163.601562 180.472656 163.285156 180.453125 C 162.964844 180.433594 162.664062 180.355469 162.378906 180.214844 C 162.089844 180.074219 161.84375 179.882812 161.632812 179.644531 C 161.421875 179.40625 161.261719 179.132812 161.160156 178.832031 C 161.054688 178.53125 161.015625 178.21875 161.035156 177.902344 C 161.054688 177.582031 161.136719 177.28125 161.273438 176.996094 C 161.414062 176.707031 161.605469 176.460938 161.84375 176.25 C 162.082031 176.039062 162.355469 175.882812 162.65625 175.777344 C 162.957031 175.675781 163.269531 175.632812 163.585938 175.652344 Z M 163.585938 175.652344 " fill-opacity="1" fill-rule="nonzero"/></g></g></g><g clip-path="url(#788ccf8746)"><g clip-path="url(#7a6525cf6a)"><g clip-path="url(#fb48ab2c8d)"><path fill="#ffff00" d="M 120.402344 363.339844 C 120.613281 363.351562 120.816406 363.40625 121.007812 363.5 C 121.199219 363.59375 121.363281 363.71875 121.503906 363.878906 C 121.644531 364.039062 121.75 364.21875 121.816406 364.417969 C 121.886719 364.621094 121.914062 364.828125 121.902344 365.039062 C 121.886719 365.25 121.835938 365.453125 121.742188 365.644531 C 121.648438 365.835938 121.519531 366 121.363281 366.140625 C 121.203125 366.28125 121.023438 366.386719 120.820312 366.457031 C 120.621094 366.523438 120.414062 366.550781 120.199219 366.539062 C 119.988281 366.527344 119.785156 366.472656 119.597656 366.378906 C 119.40625 366.285156 119.238281 366.160156 119.097656 366 C 118.957031 365.839844 118.851562 365.660156 118.785156 365.457031 C 118.714844 365.257812 118.6875 365.050781 118.699219 364.839844 C 118.714844 364.625 118.765625 364.425781 118.859375 364.234375 C 118.953125 364.042969 119.082031 363.875 119.242188 363.734375 C 119.398438 363.59375 119.582031 363.492188 119.78125 363.421875 C 119.984375 363.351562 120.191406 363.324219 120.402344 363.339844 Z M 120.402344 363.339844 " fill-opacity="1" fill-rule="nonzero"/></g></g></g></g></g></g><g mask="url(#7b751182b4)"><g transform="matrix(1, 0, 0, 1, 634, 380)"><g clip-path="url(#cac1c28ab6)"><g clip-path="url(#5c43de4a28)"><g clip-path="url(#37eb192cfb)"><g clip-path="url(#05e10bef2d)"><path fill="#ffff00" d="M 80.429688 7.125 L 85.148438 6.375 C 85.363281 6.339844 85.566406 6.234375 85.71875 6.074219 C 85.878906 5.921875 85.972656 5.71875 85.996094 5.5 L 86.617188 0.765625 L 87.367188 5.484375 C 87.40625 5.699219 87.511719 5.902344 87.667969 6.054688 C 87.820312 6.210938 88.023438 6.308594 88.242188 6.332031 L 92.976562 6.953125 L 88.261719 7.703125 C 88.042969 7.742188 87.84375 7.847656 87.6875 8.003906 C 87.53125 8.15625 87.433594 8.359375 87.410156 8.578125 L 86.792969 13.3125 L 86.039062 8.597656 C 86.003906 8.378906 85.898438 8.179688 85.738281 8.023438 C 85.585938 7.867188 85.382812 7.769531 85.164062 7.746094 Z M 80.429688 7.125 " fill-opacity="1" fill-rule="nonzero"/></g></g></g><g clip-path="url(#021e70e6a5)"><g clip-path="url(#7436cdc2f5)"><g clip-path="url(#ed76d03ba3)"><path fill="#ffff00" d="M 1.191406 24.960938 L 7.792969 23.90625 C 8.109375 23.867188 8.402344 23.722656 8.625 23.492188 C 8.847656 23.261719 8.988281 22.96875 9.023438 22.648438 L 9.851562 16.054688 L 10.90625 22.65625 C 10.945312 22.972656 11.089844 23.265625 11.320312 23.488281 C 11.546875 23.710938 11.84375 23.851562 12.160156 23.886719 L 18.757812 24.714844 L 12.152344 25.769531 C 11.835938 25.808594 11.542969 25.953125 11.324219 26.183594 C 11.101562 26.410156 10.960938 26.707031 10.925781 27.023438 L 10.097656 33.621094 L 9.042969 27.015625 C 9.003906 26.699219 8.859375 26.40625 8.628906 26.1875 C 8.398438 25.964844 8.101562 25.824219 7.785156 25.789062 Z M 1.191406 24.960938 " fill-opacity="1" fill-rule="nonzero"/></g></g></g><g clip-path="url(#57b49e4673)"><g clip-path="url(#7e48cdf105)"><g clip-path="url(#d51e6f8e65)"><path fill="#ffff00" d="M 67.242188 81.777344 L 70.707031 81.226562 C 70.863281 81.195312 71.003906 81.121094 71.121094 81.011719 C 71.230469 80.890625 71.300781 80.742188 71.324219 80.582031 L 71.777344 77.113281 L 72.328125 80.578125 C 72.359375 80.730469 72.433594 80.875 72.542969 80.992188 C 72.664062 81.097656 72.8125 81.171875 72.972656 81.195312 L 76.441406 81.648438 L 72.976562 82.199219 C 72.820312 82.230469 72.679688 82.304688 72.5625 82.414062 C 72.453125 82.535156 72.382812 82.683594 72.359375 82.84375 L 71.90625 86.3125 L 71.355469 82.847656 C 71.324219 82.691406 71.25 82.550781 71.140625 82.433594 C 71.019531 82.324219 70.871094 82.253906 70.710938 82.230469 Z M 67.242188 81.777344 " fill-opacity="1" fill-rule="nonzero"/></g></g></g><g clip-path="url(#c9b7f0e1ad)"><g clip-path="url(#51e7482c23)"><g clip-path="url(#e88c439c6a)"><path fill="#ffff00" d="M 66.566406 33.257812 L 70.023438 32.707031 C 70.355469 32.660156 70.617188 32.394531 70.652344 32.0625 L 71.105469 28.59375 L 71.65625 32.046875 C 71.699219 32.378906 71.964844 32.640625 72.300781 32.675781 L 75.769531 33.128906 L 72.304688 33.679688 C 72.148438 33.710938 72.003906 33.785156 71.890625 33.894531 C 71.777344 34.011719 71.707031 34.164062 71.6875 34.324219 L 71.234375 37.792969 L 70.683594 34.335938 C 70.636719 34.003906 70.371094 33.746094 70.039062 33.710938 Z M 66.566406 33.257812 " fill-opacity="1" fill-rule="nonzero"/></g></g></g><g clip-path="url(#27c11bf9e4)"><g clip-path="url(#ced89403c0)"><g clip-path="url(#456df23fa8)"><path fill="#ffff00" d="M 28.960938 96.949219 C 29.296875 96.945312 29.617188 97.003906 29.925781 97.125 C 30.234375 97.25 30.507812 97.425781 30.746094 97.660156 C 30.984375 97.890625 31.171875 98.160156 31.300781 98.464844 C 31.433594 98.773438 31.503906 99.089844 31.507812 99.425781 C 31.511719 99.757812 31.453125 100.078125 31.328125 100.386719 C 31.207031 100.695312 31.027344 100.96875 30.796875 101.207031 C 30.566406 101.449219 30.296875 101.632812 29.988281 101.765625 C 29.683594 101.894531 29.363281 101.964844 29.03125 101.96875 C 28.699219 101.972656 28.378906 101.914062 28.070312 101.789062 C 27.761719 101.667969 27.484375 101.488281 27.246094 101.257812 C 27.007812 101.027344 26.824219 100.757812 26.691406 100.453125 C 26.558594 100.144531 26.492188 99.828125 26.488281 99.492188 C 26.484375 99.160156 26.542969 98.839844 26.664062 98.53125 C 26.789062 98.222656 26.964844 97.949219 27.199219 97.707031 C 27.429688 97.46875 27.699219 97.285156 28.003906 97.152344 C 28.3125 97.023438 28.628906 96.953125 28.960938 96.949219 Z M 28.960938 96.949219 " fill-opacity="1" fill-rule="nonzero"/></g></g></g></g></g></g><g clip-path="url(#56e54cc380)"><g mask="url(#9de5e1804a)"><g transform="matrix(1, 0, 0, 1, 616, 21)"><g clip-path="url(#37f3434fcb)"><path fill="#ffff00" d="M 181.066406 15.761719 L 181.675781 19.957031 C 181.707031 20.148438 181.796875 20.328125 181.9375 20.46875 C 182.070312 20.609375 182.25 20.699219 182.441406 20.71875 L 186.636719 21.328125 L 182.441406 21.9375 C 182.246094 21.96875 182.066406 22.058594 181.929688 22.199219 C 181.789062 22.332031 181.699219 22.507812 181.675781 22.703125 L 181.066406 26.898438 L 180.460938 22.703125 C 180.429688 22.507812 180.339844 22.328125 180.199219 22.191406 C 180.066406 22.050781 179.886719 21.960938 179.695312 21.9375 L 175.5 21.328125 L 179.695312 20.71875 C 179.886719 20.691406 180.066406 20.597656 180.207031 20.460938 C 180.347656 20.328125 180.4375 20.148438 180.460938 19.957031 Z M 181.066406 15.761719 " fill-opacity="1" fill-rule="nonzero"/><path fill="#ffff00" d="M 114.992188 3.140625 L 115.4375 6.21875 C 115.460938 6.359375 115.527344 6.488281 115.621094 6.589844 C 115.726562 6.6875 115.859375 6.753906 116 6.777344 L 119.074219 7.222656 L 115.992188 7.667969 C 115.855469 7.691406 115.726562 7.757812 115.621094 7.855469 C 115.523438 7.957031 115.460938 8.089844 115.4375 8.230469 L 114.992188 11.304688 L 114.546875 8.226562 C 114.519531 8.085938 114.457031 7.957031 114.359375 7.855469 C 114.253906 7.757812 114.125 7.691406 113.980469 7.667969 L 110.90625 7.222656 L 113.988281 6.777344 C 114.128906 6.75 114.257812 6.6875 114.359375 6.589844 C 114.457031 6.484375 114.523438 6.355469 114.546875 6.210938 Z M 114.992188 3.140625 " fill-opacity="1" fill-rule="nonzero"/><path fill="#ffff00" d="M 158.050781 3.140625 L 158.496094 6.210938 C 158.535156 6.507812 158.765625 6.742188 159.0625 6.777344 L 162.136719 7.222656 L 159.0625 7.667969 C 158.765625 7.703125 158.535156 7.9375 158.496094 8.230469 L 158.050781 11.304688 L 157.605469 8.226562 C 157.582031 8.085938 157.515625 7.957031 157.421875 7.855469 C 157.316406 7.753906 157.183594 7.6875 157.042969 7.667969 L 153.96875 7.222656 L 157.042969 6.777344 C 157.339844 6.742188 157.570312 6.507812 157.605469 6.210938 Z M 158.050781 3.140625 " fill-opacity="1" fill-rule="nonzero"/><g clip-path="url(#37686f3d3f)"><path fill="#ffff00" d="M 244.765625 253.09375 L 243.957031 247.296875 C 243.917969 247.03125 243.792969 246.785156 243.601562 246.59375 C 243.410156 246.40625 243.164062 246.28125 242.898438 246.238281 L 237.109375 245.429688 L 242.90625 244.621094 C 243.171875 244.578125 243.417969 244.453125 243.609375 244.261719 C 243.796875 244.070312 243.921875 243.824219 243.964844 243.558594 L 244.773438 237.773438 L 245.585938 243.566406 C 245.648438 243.8125 245.789062 244.027344 245.980469 244.191406 C 246.171875 244.378906 246.417969 244.503906 246.683594 244.546875 L 252.472656 245.355469 L 246.675781 246.164062 C 246.398438 246.230469 246.152344 246.390625 245.980469 246.617188 C 245.792969 246.8125 245.667969 247.054688 245.625 247.324219 Z M 244.765625 253.09375 " fill-opacity="1" fill-rule="nonzero"/></g><path fill="#ffff00" d="M 35.136719 170.535156 L 34.027344 162.914062 C 33.976562 162.5625 33.816406 162.238281 33.566406 161.988281 C 33.316406 161.738281 32.992188 161.574219 32.644531 161.519531 L 25.019531 160.417969 L 32.644531 159.308594 C 33.367188 159.214844 33.9375 158.648438 34.035156 157.925781 L 35.136719 150.300781 L 36.246094 157.925781 C 36.292969 158.277344 36.457031 158.601562 36.707031 158.847656 C 36.957031 159.097656 37.28125 159.261719 37.628906 159.320312 L 45.253906 160.417969 L 37.628906 161.527344 C 36.90625 161.625 36.335938 162.191406 36.238281 162.914062 Z M 35.136719 170.535156 " fill-opacity="1" fill-rule="nonzero"/><g clip-path="url(#a0711ae7fc)"><path fill="#ffff00" d="M 342.703125 20.800781 L 342.039062 16.226562 C 342.007812 16.015625 341.90625 15.820312 341.753906 15.667969 C 341.609375 15.515625 341.414062 15.417969 341.203125 15.394531 L 336.632812 14.730469 L 341.203125 14.066406 C 341.414062 14.035156 341.613281 13.933594 341.761719 13.785156 C 341.917969 13.636719 342.015625 13.445312 342.039062 13.234375 L 342.703125 8.660156 L 343.367188 13.234375 C 343.398438 13.445312 343.496094 13.640625 343.648438 13.792969 C 343.792969 13.945312 343.988281 14.042969 344.199219 14.066406 L 348.773438 14.730469 L 344.199219 15.394531 C 343.988281 15.425781 343.792969 15.527344 343.640625 15.675781 C 343.488281 15.824219 343.390625 16.015625 343.367188 16.226562 Z M 342.703125 20.800781 " fill-opacity="1" fill-rule="nonzero"/></g><path fill="#ffff00" d="M 312.351562 222.335938 C 312.351562 222.015625 312.410156 221.707031 312.535156 221.40625 C 312.660156 221.109375 312.832031 220.847656 313.0625 220.621094 C 313.289062 220.390625 313.550781 220.21875 313.847656 220.09375 C 314.148438 219.96875 314.457031 219.910156 314.777344 219.910156 C 315.101562 219.910156 315.410156 219.96875 315.707031 220.09375 C 316.003906 220.21875 316.265625 220.390625 316.496094 220.621094 C 316.722656 220.847656 316.898438 221.109375 317.023438 221.40625 C 317.144531 221.707031 317.207031 222.015625 317.207031 222.335938 C 317.207031 222.660156 317.144531 222.96875 317.023438 223.265625 C 316.898438 223.5625 316.722656 223.828125 316.496094 224.054688 C 316.265625 224.28125 316.003906 224.457031 315.707031 224.582031 C 315.410156 224.703125 315.101562 224.765625 314.777344 224.765625 C 314.457031 224.765625 314.148438 224.703125 313.847656 224.582031 C 313.550781 224.457031 313.289062 224.28125 313.0625 224.054688 C 312.832031 223.828125 312.660156 223.5625 312.535156 223.265625 C 312.410156 222.96875 312.351562 222.660156 312.351562 222.335938 Z M 312.351562 222.335938 " fill-opacity="1" fill-rule="nonzero"/><path fill="#ffff00" d="M 219.675781 127.640625 L 219.191406 124.28125 C 219.164062 124.128906 219.09375 123.988281 218.988281 123.875 C 218.871094 123.769531 218.730469 123.699219 218.574219 123.671875 L 215.222656 123.1875 L 218.582031 122.703125 C 218.734375 122.675781 218.875 122.605469 218.988281 122.5 C 219.09375 122.386719 219.164062 122.242188 219.191406 122.085938 L 219.675781 118.734375 L 220.160156 122.09375 C 220.1875 122.246094 220.257812 122.386719 220.363281 122.5 C 220.480469 122.605469 220.621094 122.675781 220.777344 122.703125 L 224.128906 123.1875 L 220.769531 123.671875 C 220.617188 123.699219 220.476562 123.769531 220.363281 123.875 C 220.257812 123.992188 220.1875 124.132812 220.160156 124.289062 Z M 219.675781 127.640625 " fill-opacity="1" fill-rule="nonzero"/><path fill="#ffff00" d="M 171.921875 167.300781 L 171.4375 163.941406 C 171.410156 163.789062 171.339844 163.648438 171.234375 163.535156 C 171.121094 163.429688 170.976562 163.359375 170.820312 163.332031 L 167.46875 162.847656 L 170.828125 162.363281 C 170.980469 162.335938 171.121094 162.265625 171.234375 162.160156 C 171.339844 162.042969 171.410156 161.902344 171.4375 161.746094 L 171.921875 158.394531 L 172.40625 161.753906 C 172.433594 161.90625 172.503906 162.046875 172.609375 162.160156 C 172.726562 162.265625 172.867188 162.335938 173.023438 162.363281 L 176.375 162.847656 L 173.015625 163.332031 C 172.863281 163.359375 172.722656 163.429688 172.609375 163.535156 C 172.503906 163.648438 172.433594 163.792969 172.40625 163.949219 Z M 171.921875 167.300781 " fill-opacity="1" fill-rule="nonzero"/><path fill="#ffff00" d="M 99.078125 125.210938 L 98.59375 121.851562 C 98.566406 121.699219 98.492188 121.5625 98.390625 121.449219 C 98.273438 121.339844 98.132812 121.269531 97.976562 121.246094 L 94.625 120.757812 L 97.976562 120.273438 C 98.300781 120.234375 98.554688 119.980469 98.59375 119.660156 L 99.078125 116.308594 L 99.5625 119.667969 C 99.589844 119.816406 99.660156 119.957031 99.765625 120.070312 C 99.878906 120.175781 100.023438 120.246094 100.179688 120.273438 L 103.53125 120.757812 L 100.179688 121.246094 C 99.855469 121.285156 99.601562 121.539062 99.5625 121.859375 Z M 99.078125 125.210938 " fill-opacity="1" fill-rule="nonzero"/><g clip-path="url(#b00f32766d)"><path fill="#ffff00" d="M 5.1875 26.464844 L 4.703125 23.109375 C 4.679688 22.953125 4.605469 22.808594 4.492188 22.703125 C 4.378906 22.597656 4.238281 22.527344 4.089844 22.5 L 0.738281 22.015625 L 4.089844 21.527344 C 4.410156 21.492188 4.664062 21.234375 4.703125 20.914062 L 5.1875 17.5625 L 5.675781 20.921875 C 5.703125 21.074219 5.773438 21.214844 5.878906 21.328125 C 5.992188 21.433594 6.136719 21.503906 6.289062 21.527344 L 9.640625 22.015625 L 6.28125 22.5 C 6.128906 22.527344 5.992188 22.597656 5.878906 22.703125 C 5.769531 22.816406 5.699219 22.960938 5.675781 23.117188 Z M 5.1875 26.464844 " fill-opacity="1" fill-rule="nonzero"/></g><path fill="#ffff00" d="M 245.574219 188.34375 L 244.914062 183.769531 C 244.878906 183.558594 244.78125 183.363281 244.628906 183.210938 C 244.484375 183.058594 244.289062 182.960938 244.078125 182.9375 L 239.503906 182.273438 L 244.078125 181.609375 C 244.289062 181.578125 244.484375 181.476562 244.636719 181.324219 C 244.789062 181.179688 244.886719 180.984375 244.914062 180.773438 L 245.574219 176.203125 L 246.238281 180.773438 C 246.273438 180.988281 246.371094 181.183594 246.523438 181.332031 C 246.667969 181.488281 246.863281 181.585938 247.074219 181.609375 L 251.644531 182.273438 L 247.074219 182.9375 C 246.863281 182.96875 246.667969 183.066406 246.515625 183.21875 C 246.359375 183.367188 246.265625 183.558594 246.238281 183.769531 Z M 245.574219 188.34375 " fill-opacity="1" fill-rule="nonzero"/><path fill="#ffff00" d="M 58.609375 18.371094 L 57.945312 13.800781 C 57.914062 13.589844 57.8125 13.390625 57.660156 13.242188 C 57.515625 13.085938 57.320312 12.988281 57.109375 12.964844 L 52.539062 12.300781 L 57.109375 11.636719 C 57.324219 11.605469 57.519531 11.507812 57.667969 11.355469 C 57.824219 11.210938 57.921875 11.015625 57.945312 10.804688 L 58.609375 6.230469 L 59.273438 10.804688 C 59.304688 11.015625 59.402344 11.210938 59.554688 11.363281 C 59.703125 11.515625 59.894531 11.613281 60.105469 11.636719 L 64.679688 12.300781 L 60.105469 12.964844 C 59.894531 13 59.699219 13.097656 59.546875 13.25 C 59.394531 13.394531 59.296875 13.589844 59.273438 13.800781 Z M 58.609375 18.371094 " fill-opacity="1" fill-rule="nonzero"/><path fill="#ffff00" d="M 141.976562 111.453125 L 141.3125 106.878906 C 141.277344 106.667969 141.179688 106.472656 141.027344 106.320312 C 140.882812 106.167969 140.6875 106.070312 140.476562 106.046875 L 135.90625 105.382812 L 140.476562 104.71875 C 140.6875 104.683594 140.882812 104.585938 141.035156 104.433594 C 141.191406 104.289062 141.285156 104.09375 141.3125 103.882812 L 141.976562 99.3125 L 142.640625 103.882812 C 142.671875 104.09375 142.769531 104.289062 142.921875 104.441406 C 143.066406 104.597656 143.261719 104.691406 143.472656 104.71875 L 148.046875 105.382812 L 143.472656 106.046875 C 143.261719 106.078125 143.066406 106.175781 142.914062 106.328125 C 142.761719 106.472656 142.664062 106.667969 142.640625 106.878906 Z M 141.976562 111.453125 " fill-opacity="1" fill-rule="nonzero"/><path fill="#ffff00" d="M 120.121094 161.632812 L 118.90625 153.402344 C 118.851562 153.023438 118.675781 152.667969 118.40625 152.398438 C 118.132812 152.132812 117.785156 151.957031 117.410156 151.898438 L 109.195312 150.707031 L 117.425781 149.492188 C 118.203125 149.378906 118.816406 148.769531 118.933594 147.996094 L 120.121094 139.78125 L 121.335938 148.011719 C 121.390625 148.390625 121.566406 148.742188 121.835938 149.015625 C 122.109375 149.28125 122.457031 149.457031 122.832031 149.515625 L 131.046875 150.707031 L 122.816406 151.921875 C 122.039062 152.035156 121.429688 152.640625 121.3125 153.417969 Z M 120.121094 161.632812 " fill-opacity="1" fill-rule="nonzero"/><path fill="#ffff00" d="M 120.527344 246.617188 C 120.527344 246.296875 120.589844 245.988281 120.710938 245.6875 C 120.835938 245.390625 121.011719 245.128906 121.238281 244.902344 C 121.464844 244.675781 121.726562 244.5 122.023438 244.375 C 122.324219 244.253906 122.632812 244.191406 122.953125 244.191406 C 123.277344 244.191406 123.585938 244.253906 123.882812 244.375 C 124.179688 244.5 124.445312 244.675781 124.671875 244.902344 C 124.898438 245.128906 125.074219 245.390625 125.199219 245.6875 C 125.320312 245.988281 125.382812 246.296875 125.382812 246.617188 C 125.382812 246.941406 125.320312 247.25 125.199219 247.546875 C 125.074219 247.84375 124.898438 248.109375 124.671875 248.335938 C 124.445312 248.5625 124.179688 248.738281 123.882812 248.863281 C 123.585938 248.984375 123.277344 249.046875 122.953125 249.046875 C 122.632812 249.046875 122.324219 248.984375 122.023438 248.863281 C 121.726562 248.738281 121.464844 248.5625 121.238281 248.335938 C 121.011719 248.109375 120.835938 247.84375 120.710938 247.546875 C 120.589844 247.25 120.527344 246.941406 120.527344 246.617188 Z M 120.527344 246.617188 " fill-opacity="1" fill-rule="nonzero"/><path fill="#ffff00" d="M 156.949219 230.429688 C 156.949219 230.214844 156.988281 230.011719 157.070312 229.8125 C 157.152344 229.613281 157.269531 229.4375 157.421875 229.285156 C 157.574219 229.132812 157.75 229.015625 157.949219 228.933594 C 158.144531 228.851562 158.351562 228.8125 158.566406 228.8125 C 158.78125 228.8125 158.988281 228.851562 159.1875 228.933594 C 159.386719 229.015625 159.558594 229.132812 159.710938 229.285156 C 159.863281 229.4375 159.980469 229.613281 160.0625 229.8125 C 160.144531 230.011719 160.1875 230.214844 160.1875 230.429688 C 160.1875 230.644531 160.144531 230.851562 160.0625 231.050781 C 159.980469 231.25 159.863281 231.421875 159.710938 231.574219 C 159.558594 231.726562 159.386719 231.84375 159.1875 231.925781 C 158.988281 232.007812 158.78125 232.050781 158.566406 232.050781 C 158.351562 232.050781 158.144531 232.007812 157.949219 231.925781 C 157.75 231.84375 157.574219 231.726562 157.421875 231.574219 C 157.269531 231.421875 157.152344 231.25 157.070312 231.050781 C 156.988281 230.851562 156.949219 230.644531 156.949219 230.429688 Z M 156.949219 230.429688 " fill-opacity="1" fill-rule="nonzero"/><g clip-path="url(#a9d27632be)"><path fill="#ffff00" d="M 29.066406 2.183594 C 29.066406 1.96875 29.105469 1.765625 29.1875 1.566406 C 29.273438 1.367188 29.386719 1.191406 29.539062 1.039062 C 29.691406 0.886719 29.867188 0.773438 30.066406 0.6875 C 30.265625 0.605469 30.46875 0.566406 30.683594 0.566406 C 30.898438 0.566406 31.105469 0.605469 31.304688 0.6875 C 31.503906 0.773438 31.675781 0.886719 31.828125 1.039062 C 31.980469 1.191406 32.097656 1.367188 32.179688 1.566406 C 32.261719 1.765625 32.304688 1.96875 32.304688 2.183594 C 32.304688 2.398438 32.261719 2.605469 32.179688 2.804688 C 32.097656 3.003906 31.980469 3.179688 31.828125 3.328125 C 31.675781 3.480469 31.503906 3.597656 31.304688 3.679688 C 31.105469 3.761719 30.898438 3.804688 30.683594 3.804688 C 30.46875 3.804688 30.265625 3.761719 30.066406 3.679688 C 29.867188 3.597656 29.691406 3.480469 29.539062 3.328125 C 29.386719 3.179688 29.273438 3.003906 29.1875 2.804688 C 29.105469 2.605469 29.066406 2.398438 29.066406 2.183594 Z M 29.066406 2.183594 " fill-opacity="1" fill-rule="nonzero"/></g><path fill="#ffff00" d="M 72.773438 225.574219 C 72.773438 225.144531 72.855469 224.730469 73.019531 224.335938 C 73.183594 223.9375 73.417969 223.589844 73.722656 223.285156 C 74.023438 222.980469 74.375 222.746094 74.769531 222.582031 C 75.167969 222.417969 75.582031 222.335938 76.011719 222.335938 C 76.441406 222.335938 76.851562 222.417969 77.25 222.582031 C 77.644531 222.746094 77.996094 222.980469 78.300781 223.285156 C 78.601562 223.589844 78.835938 223.9375 79 224.335938 C 79.164062 224.730469 79.246094 225.144531 79.246094 225.574219 C 79.246094 226.003906 79.164062 226.417969 79 226.8125 C 78.835938 227.210938 78.601562 227.558594 78.300781 227.863281 C 77.996094 228.167969 77.644531 228.402344 77.25 228.566406 C 76.851562 228.730469 76.441406 228.8125 76.011719 228.8125 C 75.582031 228.8125 75.167969 228.730469 74.769531 228.566406 C 74.375 228.402344 74.023438 228.167969 73.722656 227.863281 C 73.417969 227.558594 73.183594 227.210938 73.019531 226.8125 C 72.855469 226.417969 72.773438 226.003906 72.773438 225.574219 Z M 72.773438 225.574219 " fill-opacity="1" fill-rule="nonzero"/><path fill="#ffff00" d="M 241.125 100.871094 C 241.125 100.550781 241.1875 100.242188 241.308594 99.945312 C 241.433594 99.644531 241.609375 99.382812 241.835938 99.15625 C 242.0625 98.929688 242.324219 98.753906 242.625 98.628906 C 242.921875 98.507812 243.230469 98.445312 243.550781 98.445312 C 243.875 98.445312 244.183594 98.507812 244.480469 98.628906 C 244.777344 98.753906 245.042969 98.929688 245.269531 99.15625 C 245.496094 99.382812 245.671875 99.644531 245.796875 99.945312 C 245.917969 100.242188 245.980469 100.550781 245.980469 100.871094 C 245.980469 101.195312 245.917969 101.503906 245.796875 101.800781 C 245.671875 102.101562 245.496094 102.363281 245.269531 102.589844 C 245.042969 102.816406 244.777344 102.992188 244.480469 103.117188 C 244.183594 103.238281 243.875 103.300781 243.550781 103.300781 C 243.230469 103.300781 242.921875 103.238281 242.625 103.117188 C 242.324219 102.992188 242.0625 102.816406 241.835938 102.589844 C 241.609375 102.363281 241.433594 102.101562 241.308594 101.800781 C 241.1875 101.503906 241.125 101.195312 241.125 100.871094 Z M 241.125 100.871094 " fill-opacity="1" fill-rule="nonzero"/></g></g></g></g></svg>